<?xml version="1.0" encoding="utf-8"?>
<!-- Generator: Adobe Illustrator 27.5.0, SVG Export Plug-In . SVG Version: 6.00 Build 0)  -->
<svg version="1.1" id="Calque_1" xmlns="http://www.w3.org/2000/svg" xmlns:xlink="http://www.w3.org/1999/xlink" x="0px" y="0px"
	 viewBox="0 0 619.3 86.7" style="enable-background:new 0 0 619.3 86.7;" xml:space="preserve">
<style type="text/css">
	.st0{fill:#FFFFFF;}
</style>
<g>
	<g>
		<g transform="translate(72.535411, 149.036187)">
			<g>
				<path class="st0" d="M15.6-65.7c0-0.2,0.4-0.4,0.9-0.6c1.9-0.4,1.9-2.6,0-2.7c-0.3,0-1-0.2-1.4-0.4c-0.3-0.3-1.3-0.8-2.1-1
					c-5.7-1.4-19.8-10.2-28-17.3c-5-4.3-4.9-4.1-2.5-4.8c9.7-2.8,27.1-16.2,33.3-25.5c2.6-3.8,3.5-6.5,3.5-10c0-3.2-1.2-6.1-3.7-9.2
					c-0.9-1.1-1.9-2.6-2.3-3.3c-1-2-3.9-4.8-6.2-5.9c-4.2-2.1-6.8-2.6-14.6-2.6c-6,0-7.7,0.1-11.1,0.8c-18.5,3.8-36.3,13-47.8,25.1
					c-3.9,4-5.7,6.9-5.9,9.8c-0.2,1.7-0.1,2.2,0.8,3.8c0.6,1,1.7,2.3,2.3,3c0.8,0.6,2,1.7,2.8,2.5c2,1.9,3.9,2.7,6.7,2.7
					c2.6-0.1,3.9-0.3,4-0.9c0-0.2-1.3-1.1-3-1.9c-1.7-0.9-3.3-1.9-3.9-2.2l-0.8-0.6l1-1.7c1.2-2.1,6.1-7,9.6-9.8
					c6.2-4.9,16-10.6,22.8-13.3c14.2-5.5,27.3-6.8,37.1-3.9c2.6,0.8,2.9,1.3,2.4,3c-1.8,6.8-10.4,17-20.2,24.1
					c-4,2.8-15.8,10-16.5,10c-0.2,0-0.4-0.3-0.4-0.7c0-0.8,2.1-10.1,3.1-13.7c1.9-6.9,2.7-12.7,1.4-12c-0.1,0.1-0.4-0.2-0.7-0.7
					c-0.3-0.9-1.5-1.4-2-0.9c-0.2,0.2-0.3,0.1-0.3-0.3c0-0.4-0.1-0.6-0.6-0.6c-0.4,0.1-0.7-0.1-0.7-0.4c0-2-2.6-2.9-4.2-1.6
					c-2.1,1.6-4.6,7.9-7,17.2c-2.8,11.3-3.9,20.1-3.2,26.3c0.8,7.6,2.4,12.1,5.7,15.2c1.7,1.7,6.7,4.5,8,4.5c1,0,1.4-0.9,0.9-1.6
					c-0.1-0.2-0.4-1-0.6-1.7c-0.1-0.7-0.4-2.1-0.8-3.1c-0.6-1.9-1.2-12.8-0.8-12.8c0.1,0,1.1,1.2,2.2,2.7
					C-20.3-74.2-6-65.3,4.1-63.4c1.3,0.2,2.6,0.4,2.7,0.4s1.4-0.1,2.9-0.4C12.6-63.9,15.6-65,15.6-65.7z M-69-112.6
					c0-0.2,0.2-0.8,0.4-1.2c0.3-0.6,0.6-0.8,0.6-0.6c0,0.2-0.2,0.8-0.6,1.2C-68.8-112.6-69-112.4-69-112.6z M-68.2-111.8
					c0.3-0.8,2.3-4.1,2.6-4.1c0.1,0-0.4,1.1-1.1,2.5C-68.1-111.1-68.6-110.4-68.2-111.8z M-63.9-115.1c-0.7,0.9-1.6,2.4-2,3.2
					c-0.9,1.7-1.2,2-0.9,0.7c0.4-1.4,1.1-2.6,2.7-4.1l1.4-1.6L-63.9-115.1z M6.9-113.2c-0.3,0.4-0.7,0.8-0.8,0.8
					c-0.1,0,0.1-0.3,0.4-0.8c0.3-0.3,0.7-0.7,0.8-0.7S7.2-113.5,6.9-113.2z M13.4-118c0.8-1.2,1.6-2.2,1.7-2.2
					c0.2,0-1.1,2.3-2.4,4.1c-0.8,1-1.6,1.9-1.8,1.9c-0.2,0,0-0.3,0.4-0.8C11.7-115.4,12.7-116.7,13.4-118z M4.8-117.2
					c1.3-1.6,3.2-4,4-5.2c0.9-1.3,1.7-2.3,1.8-2.2c0.1,0.1-0.6,1.2-1.4,2.6c-0.8,1.2-2.7,3.6-4.1,5l-2.6,2.7L4.8-117.2z M3-113.6
					c3.7-3.9,7.3-8.4,8.7-10.8c1.1-2,1.3-1.6,0.2,0.6c-1.4,2.8-4,6.1-7.8,9.7C-0.6-109.5-1.5-109.2,3-113.6z M-1.5-107.4
					c2.6-2.1,10.1-9.7,11.9-11.8c1.2-1.4,1.2-1.4,0.7-0.3c-0.3,0.7-2.8,3.3-5.2,5.8c-2.6,2.6-5.7,5.5-6.9,6.3l-2.3,1.8L-1.5-107.4z
					 M-25.6-116.3c0.1-0.8,0.3-1.6,0.6-2c0.2-0.4,0.2-0.3,0.1,0.6c-0.1,0.7-0.4,1.6-0.6,1.9C-25.8-115.3-25.8-115.5-25.6-116.3z
					 M-37.7-88.4c-0.1,0.3-0.1,0-0.1-0.7c0-0.7,0-0.9,0.1-0.6C-37.6-89.3-37.6-88.8-37.7-88.4z M-37.2-94.3c-0.4,0-0.4,0.1,0.7-6.5
					c1.2-6.3,2.7-12.5,4.3-17.5c1-3.3,3.2-8.5,3.5-8.2c0,0.1-0.6,1.8-1.3,3.7c-2.6,6.7-4.8,15-6,23.3
					C-36.7-96.7-37.1-94.3-37.2-94.3z M-36.5-87c0-1.7,0.1-2.8,0.3-2.8c0.2,0,0.3,0.8,0.3,1.9C-35.9-84.6-36.5-84-36.5-87z
					 M-35.8-95.8c0-1.4,1.7-10.1,2.7-14.2c1.9-7.6,5-16.7,5.3-15.7c0.1,0.2-0.1,1.2-0.6,2.2c-2.1,5.5-5,16.4-6.2,24
					C-35.1-95.8-35.8-93.9-35.8-95.8z M-31.1-109.5c0-0.3,0.1-0.4,0.2-0.2c0.1,0.3,0,0.6-0.1,0.7C-31.1-108.8-31.1-109-31.1-109.5z
					 M-30.9-87c-0.1,0.3-0.2,0-0.2-0.7s0.1-1,0.2-0.7C-30.9-87.9-30.9-87.3-30.9-87z M-29.8-97.8c-0.6,0.6,1.8-10.4,3.1-15
					c1.2-3.8,0.9-1.9-0.6,4c-0.8,3-1.6,6.6-1.9,8C-29.3-99.2-29.7-98-29.8-97.8z M-24.4-90.7c0.1-0.1,0.6,0.3,1,0.9
					c0.4,0.6,0.7,1,0.7,1C-23.1-88.8-24.5-90.4-24.4-90.7z M-12.5-75.3c-0.4,0-5.6-4.1-8.4-6.8c-2.9-2.9-6-6.7-6-7.5
					c0-0.2,0.6,0.4,1.3,1.5c3.2,4.2,8.6,9.6,12.5,12.2C-12.6-75.6-12.3-75.3-12.5-75.3z M-9.4-74.7c-3.5-2.2-7.4-5.2-11.3-8.9
					c-3-2.9-5.8-6.3-5.5-6.8c0.1-0.1,0.6,0.2,0.9,0.7c3,4.3,10.1,10.9,16.5,15c1.2,0.8,2.3,1.6,2.5,1.7C-5.3-72.3-6.6-73-9.4-74.7z"
					/>
			</g>
		</g>
	</g>
	<g>
		<g transform="translate(143.635308, 149.036187)">
			<g>
				<path class="st0" d="M-22.9-84.3c-0.3,0.1-0.6,0.1-0.4,0c0-0.2-0.1-0.3-0.3-0.4c-0.2-0.1-1.2,1.6-2.2,3.6
					c-1.7,3.1-2.2,3.9-3.7,4.8c-2.1,1.4-5.3,2.2-6.1,1.6c-1.1-1-2.2-7.4-1.8-10.6l0.2-1.7h1.6c2.1-0.1,4.1-1.4,6.5-4.6
					c4.2-5.6,6.5-12.3,5.5-16c-0.6-2-1.8-3.8-3.3-4.6c-0.7-0.3-1.7-1.1-2.4-1.8c-3.3-2.9-7.6-2.1-11.7,2.2
					c-4.8,5.1-7.7,13.6-7.7,21.9c0,6.5,1.3,10.2,4.9,14.6c1.1,1.3,2.8,2.8,3.7,3.2c0.8,0.6,2.2,1.5,3,2.1c0.9,0.7,1.9,1.3,2.5,1.4
					c2.8,0.8,5,0.1,7.6-2.3c1.1-1.1,2.2-2.3,2.3-2.9c0.6-1.6,2.6-8.4,2.7-8.9C-22.2-84-22.4-84.5-22.9-84.3z M-29.7-94.7
					c-0.4,0.6-0.9,1.3-1.2,1.6c-0.2,0.2,0-0.3,0.6-1.1C-29.2-96-28.8-96.2-29.7-94.7z M-28-97.6c-1,2-1.3,1.9-0.3-0.1
					c0.4-0.9,0.8-1.6,0.9-1.4S-27.7-98.3-28-97.6z M-26.6-101.8c0.2-0.3,0.2-0.2,0,0.3c-0.1,0.6-0.3,1.2-0.6,1.4
					c-0.2,0.4-0.2,0.3,0-0.3C-27-100.8-26.8-101.5-26.6-101.8z M-28.7-98.9c0.3-0.9,0.9-2.2,1.1-3c0.6-1.4,0.6-1.4,0.3-0.2
					c-0.1,0.7-0.6,2.1-1,3.1c-0.4,1-0.9,1.9-1,1.9C-29.4-97.1-29.1-97.9-28.7-98.9z M-30.2-106.6c0.8-0.6,0.8-0.6,0.8,0.3
					c0,3-2.7,9.7-4.8,11.9c-1.1,1.2-2.3,2.2-2.3,2c0-0.1,0.4-1.6,0.9-3.1C-34.6-98.8-31.2-105.6-30.2-106.6z M-43.4-90.7
					c-0.1,0.2-0.2,0-0.2-0.4c0-0.6,0.1-0.8,0.2-0.4C-43.3-91.3-43.3-91-43.4-90.7z M-43.7-97.6c-0.4,0,0-1.1,1.3-4
					c1.4-2.9,1.4-2.8,0,1.1C-43.1-98.8-43.6-97.6-43.7-97.6z M-42.4-97.5c-0.4-0.7,2.8-8,4-9c0.2-0.2,0,0.4-0.6,1.6
					c-0.4,1-1.4,3.2-2.1,4.9C-41.6-98.5-42.3-97.2-42.4-97.5z M-40.6-97.1c0.6-3,3.9-9.8,5.2-11c0.3-0.2-0.1,0.7-0.9,2
					c-0.8,1.3-2.1,4.2-3,6.3C-40.2-97.7-40.7-96.5-40.6-97.1z M-38.3-92.7c-0.1-0.7,1.3-5.3,1.6-5.1c0,0-0.3,1.3-0.8,2.9
					C-37.9-93.3-38.3-92.3-38.3-92.7z M-25-77.7c-0.1,0.1-0.2,0-0.2-0.2c0-0.3-0.2-0.3-0.3-0.2c-0.2,0.1-0.3-0.1-0.1-0.4
					c0.2-0.6,0.2-0.6,0.6,0C-25-78.3-24.9-77.9-25-77.7z M-24.3-126.9c-0.8-4.9-1.9-6.6-6.6-10.6c-2.1-1.9-3-2.1-4.8-1.4
					c-3.3,1.3-10,9.7-10,12.6c0,0.4,0.4,1.2,0.9,1.8c0.8,0.8,1,0.9,1.4,0.6c0.2-0.3,0.4-0.7,0.4-0.9c0-0.4,2.7-4.7,3.2-5
					c0.2-0.1-0.1,0.4-0.7,1.3c-1.3,2-2.7,4.6-2.5,4.8c0.1,0,1.4-1.7,2.9-3.9c1.5-2.2,3.1-4.3,3.7-4.9c0.8-0.7,0.7-0.6-0.3,0.8
					c-1.6,1.9-5.5,7.8-5.7,8.5c-0.2,0.9,0.3,1.8,1.2,1.8c1,0,2.1-1.1,4.9-5.1c2.2-3.2,4.1-5.5,4.6-5.5c0.2,0,0.3,0.7,0.6,1.4
					c0.6,3.8,1.3,7.6,1.8,8.6c0.3,0.6,1,1.1,1.6,1.3c0.7,0.2,1.1,0.6,1.1,1c0,0.3,0.1,0.7,0.4,0.8
					C-24.1-118.1-23.3-121.4-24.3-126.9z"/>
			</g>
		</g>
	</g>
	<g>
		<g transform="translate(165.859243, 149.036187)">
			<g>
				<path class="st0" d="M-11.6-109.7c-0.6-1.7-1.9-3.2-3.3-4c-1.1-0.6-1.1-0.4-1.8,0.2c-0.3,0.4-0.6,1.3-0.6,2.4
					c0,2.3-1,9.8-1.8,14.2c-1.3,6.7-4.1,15.2-6.8,20.4c-1,1.9-1,1.9-1.7-1.6c-1-5-1.1-9.9-0.8-19.4c0.2-5.1,0.3-9.9,0.2-10.7
					c-0.3-1.8-0.9-3.2-1.2-3.1c-0.2,0.1-0.6-0.1-0.9-0.4c-0.3-0.3-0.9-0.7-1.2-0.6c-0.3,0-0.9-0.1-1.2-0.4c-0.6-0.4-0.7-0.4-0.9,0.3
					c-0.3,0.8-0.3,0.8-0.4-0.3c0-0.7-0.1-1.1-0.3-1c-0.2,0.1-0.4,0-0.6-0.4c-0.3-0.9-0.8-1.1-1.9-0.9c-1.3,0.2-2,1.1-2.8,3.5
					c-1.1,3.1-1.4,6.3-1.7,13.5c-0.3,7.3,0.1,12,1.4,17.3c1.6,6.1,3.3,9.4,6.6,11.9c1.3,1.1,2.1,1.4,3.1,1.4c0.8,0,1.4,0.1,1.7,0.3
					c0.1,0.2,0.8,0.7,1.4,1.1c1.7,0.9,3.1,0.6,4.6-0.9c3-2.8,8.2-16.8,10.6-27.8C-11-98.6-10.9-107.7-11.6-109.7z M-36.9-95.1
					c-0.1,0.9-0.1,0.2-0.2-1.4c-0.1-4.8,1.3-15.7,2-15c0,0.1-0.1,1.4-0.4,3c-0.2,1.4-0.7,4.8-0.9,7.4C-36.7-98.8-36.9-96-36.9-95.1z
					 M-34.6-103c-0.2,2.1-0.4,7-0.4,10.8c-0.1,3.9-0.1,7-0.1,7c-0.1,0-0.2-1.6-0.3-3.5c-0.4-5.8,0.4-20.2,1.3-22.2
					C-33.9-111.6-34-109.5-34.6-103z M-15.3-104.4c0.1,0.2,0.1,0.6,0,0.9c-0.1,0.2-0.2,0-0.2-0.4C-15.5-104.5-15.4-104.6-15.3-104.4
					z M-15.6-101.9c0,0.2,0,0.6-0.1,0.7c-0.1,0.1-0.2-0.1-0.1-0.4C-15.8-102.1-15.7-102.1-15.6-101.9z M-16-95.7
					c0.4-2.3,1-5.7,1.1-7.6c0.1-1.9,0.3-3.7,0.6-4c0.4-1.2-0.1,4.9-0.8,9.1c-0.7,3.7-1.7,7.9-1.8,7.1C-16.9-91.2-16.6-93.3-16-95.7z
					 M-17-90.2c0.1,0.2,0.1,0.6,0,0.7c-0.1,0.1-0.2-0.1-0.2-0.4C-17.3-90.4-17.2-90.4-17-90.2z M-19.8-78.9
					c-0.1,0.3-0.3,0.4-0.3,0.2c0-0.2,0.2-0.6,0.3-0.9c0.2-0.3,0.4-0.3,0.4-0.2C-19.4-79.5-19.6-79.1-19.8-78.9z M-19.1-80.6
					c-0.2,0.3-0.3,0.4-0.3,0.2c0-0.2,0.1-0.6,0.3-0.9c0.1-0.3,0.3-0.3,0.3-0.2C-18.7-81.3-18.9-80.9-19.1-80.6z M-16.9-86.4
					c-0.7,1.9-1.2,3.3-1.2,3.3c-0.2,0-0.3,0.3,1-3.9c0.7-2,1.2-3.5,1.2-3.2S-16.4-88.3-16.9-86.4z M-15-93.4
					c-0.3,1.4-0.7,2.6-0.8,2.6c-0.1,0-0.1-0.6,0.8-4.8c0.3-1.6,0.8-4.3,1.1-6.1c0.2-1.9,0.4-2.9,0.4-2.3
					C-13.4-102.8-14.3-96.8-15-93.4z"/>
			</g>
		</g>
	</g>
	<g>
		<g transform="translate(191.007399, 149.036187)">
			<g>
				<path class="st0" d="M-7.1-84.3c-0.3,0.1-0.6,0.1-0.4,0c0-0.2-0.1-0.3-0.3-0.4c-0.2-0.1-1.2,1.6-2.2,3.6
					c-1.7,3.1-2.2,3.9-3.7,4.8c-2.1,1.4-5.3,2.2-6.1,1.6c-1.1-1-2.2-7.4-1.8-10.6l0.2-1.7h1.6c2.1-0.1,4.1-1.4,6.5-4.6
					c4.2-5.6,6.5-12.3,5.5-16c-0.6-2-1.8-3.8-3.3-4.6c-0.7-0.3-1.7-1.1-2.4-1.8c-3.3-2.9-7.6-2.1-11.7,2.2
					c-4.8,5.1-7.7,13.6-7.7,21.9c0,6.5,1.3,10.2,4.9,14.6c1.1,1.3,2.8,2.8,3.7,3.2c0.8,0.6,2.2,1.5,3,2.1c0.9,0.7,1.9,1.3,2.5,1.4
					c2.8,0.8,5,0.1,7.6-2.3c1.1-1.1,2.2-2.3,2.3-2.9c0.6-1.6,2.6-8.4,2.7-8.9C-6.4-84-6.7-84.5-7.1-84.3z M-13.9-94.7
					c-0.4,0.6-0.9,1.3-1.2,1.6c-0.2,0.2,0-0.3,0.6-1.1C-13.5-96-13-96.2-13.9-94.7z M-12.2-97.6c-1,2-1.3,1.9-0.3-0.1
					c0.4-0.9,0.8-1.6,0.9-1.4S-11.9-98.3-12.2-97.6z M-10.8-101.8c0.2-0.3,0.2-0.2,0,0.3c-0.1,0.6-0.3,1.2-0.6,1.4
					c-0.2,0.4-0.2,0.3,0-0.3C-11.2-100.8-11-101.5-10.8-101.8z M-12.9-98.9c0.3-0.9,0.9-2.2,1.1-3c0.6-1.4,0.6-1.4,0.3-0.2
					c-0.1,0.7-0.6,2.1-1,3.1c-0.4,1-0.9,1.9-1,1.9C-13.6-97.1-13.3-97.9-12.9-98.9z M-14.5-106.6c0.8-0.6,0.8-0.6,0.8,0.3
					c0,3-2.7,9.7-4.8,11.9c-1.1,1.2-2.3,2.2-2.3,2c0-0.1,0.4-1.6,0.9-3.1C-18.8-98.8-15.5-105.6-14.5-106.6z M-27.6-90.7
					c-0.1,0.2-0.2,0-0.2-0.4c0-0.6,0.1-0.8,0.2-0.4C-27.5-91.3-27.5-91-27.6-90.7z M-27.9-97.6c-0.4,0,0-1.1,1.3-4
					c1.4-2.9,1.4-2.8,0,1.1C-27.3-98.8-27.8-97.6-27.9-97.6z M-26.6-97.5c-0.4-0.7,2.8-8,4-9c0.2-0.2,0,0.4-0.6,1.6
					c-0.4,1-1.4,3.2-2.1,4.9C-25.8-98.5-26.5-97.2-26.6-97.5z M-24.8-97.1c0.6-3,3.9-9.8,5.2-11c0.3-0.2-0.1,0.7-0.9,2
					c-0.8,1.3-2.1,4.2-3,6.3C-24.4-97.7-24.9-96.5-24.8-97.1z M-22.5-92.7c-0.1-0.7,1.3-5.3,1.6-5.1c0,0-0.3,1.3-0.8,2.9
					C-22.1-93.3-22.5-92.3-22.5-92.7z M-9.2-77.7c-0.1,0.1-0.2,0-0.2-0.2c0-0.3-0.2-0.3-0.3-0.2c-0.2,0.1-0.3-0.1-0.1-0.4
					c0.2-0.6,0.2-0.6,0.6,0C-9.2-78.3-9.1-77.9-9.2-77.7z"/>
			</g>
		</g>
	</g>
	<g>
		<g transform="translate(213.231333, 149.036187)">
			<g>
				<path class="st0" d="M8.2-114.8c-2.6-1.6-3-1.7-5-1.7c-4.5,0-7.7,2.8-11.9,10.4c-1.1,2.1-1.7,2.7-1.6,2c0.7-3.3,1-8,0.8-9.2
					c-0.2-1.2-0.2-1.3-0.8-0.7c-0.4,0.7-0.4,0.7-0.4-0.3c0-1-1.2-1.8-2-1.1c-0.3,0.2-0.4,0.1-0.4-0.3c0-0.4-0.2-0.4-0.8-0.3
					c-0.4,0.1-0.7,0.1-0.7-0.3c0-0.3-0.4-1-1-1.4c-2.4-2.3-5.8,1.6-7.5,8.8c-0.3,1.6-1.1,5.6-1.7,8.9c-0.9,5.1-1,7.1-1,13.5
					c0,8,0.2,9.8,2.5,14.5c1.2,2.4,3.3,4.1,4.8,3.7c0.9-0.2,1.2-0.1,2.5,1.1c1.6,1.6,2.4,1.8,2.6,0.8c0-0.6,0-0.6,0.2,0.1
					c0.3,0.6,0.3,0.6,0.9-0.2c0.4-0.7,0.6-1.3,0.3-3.6c-0.4-6.7,2.2-18.2,6.3-26.8c3.8-8.1,8.5-12.6,13.9-13.5
					c1.2-0.1,2.3-0.1,2.8,0c0.9,0.3,2,0.2,2-0.3C13-111.5,10.9-113.2,8.2-114.8z M-21.4-85.3c-0.1,0.6-0.2,0.1-0.2-0.9
					c0-1.1,0.1-1.6,0.2-1C-21.4-86.7-21.4-85.9-21.4-85.3z M-21.3-91.9c-0.1-4.5,2.8-18.9,4.2-20.9c0.2-0.4,0.3-0.3,0.1,0.2
					c-1.8,6.3-1.8,6.6-2.8,12.1c-0.3,1.7-0.8,4.7-1.1,6.8C-21.2-90.8-21.3-90.3-21.3-91.9z M-18.9-96c-0.2,1.6-0.6,5.7-0.7,9.2
					c-0.2,5.2-0.3,6-0.6,4.6c-1-5.3,1.9-25.6,4.5-31.3c1-2.3,1-1.6,0,1.8C-16.5-108.4-18.3-100.4-18.9-96z M-16.5-100.4
					c-0.1,0.2-0.2,0.1-0.2-0.4c0-0.4,0.1-0.7,0.2-0.4C-16.4-101-16.4-100.6-16.5-100.4z M-14.8-107.7c-1.8,6.7-1.8,5.8-0.1-1.3
					c1.1-4.6,1.2-5.1,1.6-4.8C-13.4-113.7-14-110.9-14.8-107.7z M-14-96.1c0-0.8,2.9-15,3.1-15.3c0.2-0.2-0.2,2.2-1.6,9.2
					C-13.5-96.5-14-95-14-96.1z M-11.5-92.7c-0.4,1.1-0.7,1.3-0.7,0.9c0-0.2,0.2-0.7,0.6-1C-11.1-93.4-11.1-93.4-11.5-92.7z
					 M-7.9-98.6c-1.1,2.5-2.8,6.3-3.6,8.7c-0.8,2.2-1.3,3.6-1.2,2.8c0.4-2.7,5.5-14.4,6.6-15.6C-5.9-102.9-6.7-101-7.9-98.6z"/>
			</g>
		</g>
	</g>
	<g>
		<g transform="translate(242.891117, 149.036187)">
			<g>
				<path class="st0" d="M3.2-130.5c-0.2,0-0.8-0.3-1.1-0.8c-1.8-2-4.2-2.2-6.6-0.7c-3.1,2.1-6,6.7-5.1,8.2c0.7,1.3,1.4,1.9,2.2,1.7
					c0.4-0.1,0.8-0.1,0.8,0.1c0,0.2,0.2,0.3,0.6,0.2c0.4-0.2,0.6,0,0.6,0.7c0,0.6,0.2,1,0.6,1.1c1.2,0.4,2.3-0.4,4.7-3.7
					c0.9-1.3,2.2-2.7,3.2-3.3c0.9-0.4,1.7-1.2,1.7-1.6C4.6-129.3,3.7-130.5,3.2-130.5z M-0.9-71.8c-1.2-0.8-2-3.5-2.2-7
					c-0.2-3.3,0.3-13.6,1.1-19.4c1-7.3,1.3-12.6,0.9-13.7c-0.2-0.6-0.6-1-0.7-0.9c-0.2,0.1-0.6,0-0.8-0.3c-0.2-0.3-0.7-0.4-0.9-0.3
					c-0.3,0-0.6-0.1-0.6-0.3s-0.2,0-0.6,0.4l-0.4,1l0.1-1c0-0.6-0.1-0.9-0.6-0.9c-0.3,0-1-0.4-1.4-1.1c-1.7-2-4.2-1-5.7,2
					c-2.2,4.6-3.2,11.9-3,21.8c0.1,5.8,0.3,7.6,1,9.8c1.7,6,4.2,9.6,7.9,10.7c1,0.3,2.1,0.8,2.6,1.1c1.2,1,4,0.4,4-0.8
					C-0.2-70.9-0.5-71.5-0.9-71.8z M-11.1-92.1c-0.2,5.3-0.2,5.9-0.4,4c-0.6-3.5,0.3-12.9,1.6-18.6c0.8-3.6,1.2-4.3,0.7-1
					c-0.2,1.1-0.7,3.7-1,5.7C-10.6-99.9-11-95.5-11.1-92.1z M-9.6-89.8c-0.2,6.1-0.2,6.6-0.6,4.1c-0.6-5.8,1.1-22.5,2.7-25.5
					c0.6-1.2,0.7-0.7,0.1,1.8c-0.3,1.2-0.9,4.6-1.2,7.5C-9.1-99-9.5-93.6-9.6-89.8z M-8.1-92.3c-0.1,0.2-0.1,0-0.1-0.6
					c0-0.4,0-0.7,0.1-0.4C-8-93-8-92.7-8.1-92.3z M-5.3-110.9c-0.1,0.6-0.4,2.7-0.9,4.8c-0.3,2.1-0.9,5.5-1.2,7.6
					c-0.6,4.3-0.7,3.3-0.1-1.6c0.4-4.7,1.8-11.7,2.2-11.7C-5.2-111.8-5.1-111.4-5.3-110.9z M-4.4-91.3c-0.2,2.6-0.4,6-0.4,7.8
					C-5-80.9-5-81.1-5-84.6c-0.1-2.3,0-5.9,0.2-7.8c0.6-5.7,2.2-18.6,2.4-17.6c0,0.4-0.3,3.8-0.8,7.4C-3.6-99-4.2-93.9-4.4-91.3z"/>
			</g>
		</g>
	</g>
	<g>
		<g transform="translate(260.603434, 149.036187)">
			<g>
				<path class="st0" d="M16.1-84.3c-0.3,0.1-0.6,0.1-0.4,0c0-0.2-0.1-0.3-0.3-0.4c-0.2-0.1-1.2,1.6-2.2,3.6
					c-1.7,3.1-2.2,3.9-3.7,4.8c-2.1,1.4-5.3,2.2-6.1,1.6c-1.1-1-2.2-7.4-1.8-10.6l0.2-1.7h1.6c2.1-0.1,4.1-1.4,6.5-4.6
					c4.2-5.6,6.5-12.3,5.5-16c-0.6-2-1.8-3.8-3.3-4.6c-0.7-0.3-1.7-1.1-2.4-1.8c-3.3-2.9-7.6-2.1-11.7,2.2
					c-4.8,5.1-7.7,13.6-7.7,21.9c0,6.5,1.3,10.2,4.9,14.6c1.1,1.3,2.8,2.8,3.7,3.2c0.8,0.6,2.2,1.5,3,2.1c0.9,0.7,1.9,1.3,2.5,1.4
					c2.8,0.8,5,0.1,7.6-2.3c1.1-1.1,2.2-2.3,2.3-2.9c0.6-1.6,2.6-8.4,2.7-8.9C16.8-84,16.5-84.5,16.1-84.3z M9.3-94.7
					c-0.4,0.6-0.9,1.3-1.2,1.6c-0.2,0.2,0-0.3,0.6-1.1C9.7-96,10.2-96.2,9.3-94.7z M11-97.6c-1,2-1.3,1.9-0.3-0.1
					c0.4-0.9,0.8-1.6,0.9-1.4S11.3-98.3,11-97.6z M12.4-101.8c0.2-0.3,0.2-0.2,0,0.3c-0.1,0.6-0.3,1.2-0.6,1.4
					c-0.2,0.4-0.2,0.3,0-0.3C12-100.8,12.2-101.5,12.4-101.8z M10.3-98.9c0.3-0.9,0.9-2.2,1.1-3c0.6-1.4,0.6-1.4,0.3-0.2
					c-0.1,0.7-0.6,2.1-1,3.1c-0.4,1-0.9,1.9-1,1.9C9.6-97.1,9.9-97.9,10.3-98.9z M8.7-106.6c0.8-0.6,0.8-0.6,0.8,0.3
					c0,3-2.7,9.7-4.8,11.9c-1.1,1.2-2.3,2.2-2.3,2c0-0.1,0.4-1.6,0.9-3.1C4.4-98.8,7.7-105.6,8.7-106.6z M-4.4-90.7
					c-0.1,0.2-0.2,0-0.2-0.4c0-0.6,0.1-0.8,0.2-0.4C-4.3-91.3-4.3-91-4.4-90.7z M-4.7-97.6c-0.4,0,0-1.1,1.3-4
					c1.4-2.9,1.4-2.8,0,1.1C-4.1-98.8-4.6-97.6-4.7-97.6z M-3.4-97.5c-0.4-0.7,2.8-8,4-9c0.2-0.2,0,0.4-0.6,1.6
					c-0.4,1-1.4,3.2-2.1,4.9C-2.6-98.5-3.3-97.2-3.4-97.5z M-1.6-97.1c0.6-3,3.9-9.8,5.2-11c0.3-0.2-0.1,0.7-0.9,2
					c-0.8,1.3-2.1,4.2-3,6.3C-1.2-97.7-1.7-96.5-1.6-97.1z M0.7-92.7c-0.1-0.7,1.3-5.3,1.6-5.1c0,0-0.3,1.3-0.8,2.9
					C1.1-93.3,0.7-92.3,0.7-92.7z M14-77.7c-0.1,0.1-0.2,0-0.2-0.2c0-0.3-0.2-0.3-0.3-0.2c-0.2,0.1-0.3-0.1-0.1-0.4
					c0.2-0.6,0.2-0.6,0.6,0C14-78.3,14.1-77.9,14-77.7z"/>
			</g>
		</g>
	</g>
	<g>
		<g transform="translate(282.827378, 149.036187)">
			<g>
				<path class="st0" d="M19.8-80.6c-0.6-1.7-3.5-4.9-6-6.7C6.3-92.6,5.2-93.9,6-97.5c0.9-4.6,4.7-9.5,7.8-10.4
					c1.3-0.3,1.6-0.3,2.9,0.6c1.6,1,2.3,1,2.8,0c0.4-1.1-0.3-2.2-2.1-3.6c-0.9-0.7-2-1.6-2.5-2c-2.9-2.7-6.3-3.1-9.9-1.3
					c-6.7,3.3-11,12.2-8.6,17.5c1.4,3,4.3,6.2,7.5,8.4C7-86.2,9.5-84,9.7-83.2c0.4,1.4-0.4,4.3-1.9,6.3c-2.8,3.8-6.9,4.8-9.9,2.3
					c-1.4-1.2-2.3-1.2-2.9-0.3c-0.7,1,0.3,2.3,3.2,4.6c3.5,2.6,4.6,3.2,6,3.8c1.9,0.7,5.8,0.4,8-0.6c2.2-1.1,5.8-4.7,6.9-6.9
					C20.2-76.1,20.4-78.9,19.8-80.6z M-0.6-100.7c-0.3,0-0.1-1,0.6-2.3c0.4-0.8,0.7-1.1,0.6-0.7c-0.1,0.3-0.4,1.2-0.6,1.8
					C-0.2-101.2-0.4-100.7-0.6-100.7z M0.4-99.7c-0.3,0,0.2-2.6,1-4.1c1-2,1.7-2.5,0.9-0.6c-0.3,0.8-0.9,2.1-1.1,3
					C0.9-100.5,0.6-99.7,0.4-99.7z M2.6-101c-0.2,0.6-0.3,0.7-0.4,0.2c0-0.8,1.6-4.1,2.5-5.2c0.6-0.7,0.4-0.2-0.4,1.6
					C3.6-103,2.8-101.6,2.6-101z M4.7-98.9c0-0.3,0.1-0.8,0.3-1.1c0.1-0.3,0.3-0.3,0.2-0.2C5.2-99.6,4.7-98.3,4.7-98.9z M12.5-77.7
					c0.4-1.6,0.7-1.7,0.7-0.8c0,0.3-0.2,1-0.6,1.3C12.1-76.5,12.1-76.6,12.5-77.7z M12.9-75.8c0.1-0.3,0.6-1.3,0.8-2.2
					c0.4-1.2,0.7-1.4,0.8-0.8c0,0.4-0.2,1.3-0.7,2.2C13.1-75.3,12.5-74.6,12.9-75.8z M15.4-76.6c-0.2,0.8-1.6,2.8-1.6,2.3
					c0-0.1,0.4-0.9,0.9-1.7C15.3-77,15.5-77.2,15.4-76.6z"/>
			</g>
		</g>
	</g>
	<g>
		<g>
			<g transform="translate(78.843786, 219.982854)">
				<g>
					<path class="st0" d="M302.7-202.5c1-3.9,0.4-6.2-1.2-6.2c-0.3,0-1.2-0.6-2-1.2c-1.4-1.3-1.6-1.3-2.9-0.7
						c-1.3,0.7-2.3,1.8-3.6,4.3c-3.5,6.9-6.2,15.8-7.9,26l-0.2,1.2l-1.9-0.6c-1-0.3-2.7-1.1-3.6-1.7c-1-0.7-2.7-1.3-3.7-1.6
						c-5.9-1.2-13,3.7-17,11.9c-3,5.9-4.5,11.8-4.5,18.4c0,5.1,0.2,6,2.6,9.1c1.6,2.2,5,4.5,6.8,4.6c0.7,0,1.9,0.3,2.7,0.8
						c3.7,2.3,6,0.3,10.9-9.4c1.2-2.5,3.2-6.8,4.5-9.7c2.1-4.9,2.3-5.2,2.4-3.9c0.2,3.3,1.6,12.1,2.2,14.3c1.9,6.2,4.2,9.6,8.1,11.5
						c1.3,0.8,3,1.3,3.6,1.3c0.7,0,1.4,0.1,1.7,0.3c0.8,0.6,1.7,0.4,2.3-0.2c0.7-0.7,0.7-0.6-0.6-1.8c-3.9-4.1-5.7-14-5-27
						C297.2-176.2,299-187.7,302.7-202.5z M302-205.6c0.1,0.3,0.1,0.6,0,0.7c-0.1,0.2-0.2,0-0.2-0.4
						C301.9-205.7,301.9-205.8,302-205.6z M255.7-151.6c-0.1,0.2-0.2,0-0.2-0.4c0-0.4,0.1-0.7,0.2-0.4S255.8-151.8,255.7-151.6z
						 M259.4-156.6c-0.1,0.8-0.3,2.9-0.4,4.6l-0.3,3l0.1-3.6c0.1-1.9,0.3-4,0.6-4.6C259.6-158.1,259.7-158,259.4-156.6z
						 M260.2-148.7c-0.7-3.3,0.8-13.1,2.5-15.9c0.3-0.6,0.4-0.8,0.3-0.3c-1.3,3.9-2,7.9-2.1,12.3
						C260.7-147.2,260.6-146.8,260.2-148.7z M263.8-155.4c-0.1,0.1-0.2,0-0.2-0.4c0-0.3,0.1-0.4,0.2-0.2
						C263.9-155.7,263.9-155.5,263.8-155.4z M265.4-165.4c-1.1,3-2,6.9-2.5,10.1c-0.2,1.7-0.4,3.8-0.6,4.8c-0.1,1.8-0.1,1.8-0.2,0.3
						c-0.2-2.2,0-5.5,0.7-8.2c0.6-2.9,2.4-8.5,2.9-8.7C265.9-167.2,265.8-166.5,265.4-165.4z M265.9-148.2c0,0.8-0.1,0-0.1-1.4
						c0-1.6,0.1-2.2,0.1-1.3C266-150.2,266-148.9,265.9-148.2z M281.7-166.6c-1.1,1.7-2.7,4.5-3.7,6.1c-0.9,1.6-2,3.6-2.4,4.3
						c-1.3,2.5-3.9,6.4-5.6,8.5c-0.9,1.1-1.8,2-1.9,2c-0.2,0-0.3-1.7-0.3-3.8c0-9.8,4.6-19.9,10.5-23.3c2.6-1.4,3-1.4,4.3,0.6
						c0.7,1,1.1,1.9,1.1,2.1C283.7-169.8,282.8-168.3,281.7-166.6z M301.3-202.7c0.1,0.2,0.1,0.6,0,0.7c-0.1,0.1-0.2-0.1-0.2-0.4
						C301.1-202.9,301.2-203,301.3-202.7z M301-201.2c0.1,0.2,0.1,0.6,0,0.7c-0.1,0.1-0.2-0.1-0.2-0.6
						C300.8-201.5,300.9-201.6,301-201.2z M292-192.3c1.3-4.7,3.5-10.8,3.7-10.6c0.1,0.1-0.4,1.8-1.1,3.8c-2.1,6.2-3.9,14-4.8,20.5
						c-0.2,1.8-0.6,3.2-0.8,3.2C288.4-175.4,290.3-186,292-192.3z M289.1-150.1c-1-6-1.4-17.6-0.8-19.4c0.2-0.4,0.3,2.3,0.3,6.5
						c0,5,0.2,8.6,0.6,11.1C289.9-147.7,289.7-146.3,289.1-150.1z M291.4-145.7c-0.1,0-0.4-1.1-0.7-2.3c-2-8.9-1.7-24.1,0.8-36.8
						c1.3-7,4.7-18,6.5-21.5c1.1-2.2,1-1.6-0.3,2.1c-3.7,10.1-6.1,20.7-7.1,31.8c-0.8,7.8-0.3,19.5,0.9,25.6
						C291.5-146.2,291.5-145.7,291.4-145.7z M292.2-173.1c-0.2,1.9-0.4,6.3-0.7,9.7l-0.3,6.2l0.2-7c0.1-9.5,1.4-19,3.7-28.1
						c1-3.7,3.2-11.1,4.2-13.6c1.3-3.3,1.4-2.8,0.2,0.8C296-195,293.7-184.9,292.2-173.1z M295.3-147.9c-0.1,0.3-0.1,0.1-0.1-0.6
						c0-0.8,0-1,0.1-0.7C295.4-148.8,295.4-148.2,295.3-147.9z M294.9-154c0.3,4.1,0.1,5.1-0.2,1.3c-0.7-6.8,0.4-22.2,2.5-32.8
						c0.7-3.9,3.3-14.8,3.6-14.6c0,0-0.4,2.3-1.1,5C296.4-182.4,294.3-163.8,294.9-154z"/>
				</g>
			</g>
		</g>
		<g>
			<g transform="translate(118.111654, 219.982854)">
				<g>
					<path class="st0" d="M275.5-193.9c1.1-3,2-5.1,3.7-7.8c0.9-1.6,1.3-2.6,1-2.7c-0.2-0.1-0.3-0.3-0.3-0.7c0-0.2-0.2-0.4-0.4-0.4
						c-0.3,0-1-0.6-1.4-1.1c-1.1-1.2-1.9-1.3-3.5-0.6c-1.6,0.9-4.9,4.8-6.1,7.2c-1,2.1-1.1,2.7-1.1,5.3c0,2.5,0.1,3.3,0.9,4.6
						c0.8,1.6,4.2,5.2,5.6,6c0.9,0.6,1.3,0.4,1.9-0.1c0.3-0.4,0.3-0.7-0.2-1.2C274.7-186.3,274.7-191.2,275.5-193.9z M270.3-196.8
						c0-0.4,1-2.3,1.2-2.3c0.1,0-0.1,0.4-0.3,1.1C270.5-196.7,270.3-196.5,270.3-196.8z M271.1-195.7c-0.1-0.9,1.9-4.9,3-6.2
						c0.8-0.9,0.8-0.9-0.1,0.7c-0.4,0.9-1.2,2.2-1.6,3.1C271.1-195,271.1-195,271.1-195.7z M273.4-197.6c-0.6,1.3-1.1,2.3-1.2,2.3
						c-0.4,0,2.6-6.1,3.8-7.6c0.9-1,0.9-0.9-0.2,1C275.1-200.7,274-198.8,273.4-197.6z"/>
				</g>
			</g>
		</g>
		<g>
			<g transform="translate(130.226203, 219.982854)">
				<g>
					<path class="st0" d="M282.6-159.6c0.6,0,0.7,0.2,0.4,1c-1.3,6.6-1.8,9.5-1.8,13.7c0,4.2,0.1,4.8,0.9,6.6c1,2.2,2.8,3.9,4.1,3.9
						c0.4,0,0.8,0.1,0.8,0.3c0,0.6,1.3,0.4,1.8-0.1c0.6-0.7,0.9-1.9,2-6.8c0.8-3.9,4.9-19.3,5.1-19.4c0.1-0.1,2.1-0.8,4.5-1.7
						c4.9-1.6,4.6-1.7,7,0.6c1.6,1.4,5.5,6,7.9,9.4c3.3,4.5,4.7,6.9,4.7,8.5c0,1.7,1.1,4.9,2.2,6c0.4,0.6,1,0.8,1.6,0.7
						c0.4-0.1,0.8,0,0.8,0.1c0,0.2,0.1,0.3,0.3,0.2c0.1-0.1,0.4,0.1,0.6,0.7c0.4,1.7,3.5,0.6,4.7-1.7c0.4-0.9,3.2-16.5,4.7-26.5
						c0.4-2.4,0.8-6.7,1-9.5c0.2-4.8,0.2-5.1,1-5.6c1.4-1,7.6-3.3,9.8-3.8c3-0.6,5-1.1,5.1-1.6c0.1-0.6-2-3.1-3.5-4.2
						c-1-0.7-1.6-0.9-3.6-0.9c-1.2,0-3.3,0.3-4.8,0.6c-4.8,1.1-4.1,1.6-4.8-3.2c-1.6-10.4-4-15.4-8.9-18.5c-0.9-0.4-2-1.4-2.7-2.2
						c-2.7-3.1-6.5-3.6-10.4-1.4c-2.7,1.3-8.6,7.3-11.4,11.4c-4,5.9-8.7,14.9-12.4,24.1c-0.9,2.2-1.4,3.3-1.8,3.2
						c-0.2,0-2-0.2-3.9-0.2c-2.7-0.1-3.9,0-5.3,0.4c-5.1,1.6-7.1,4.9-5.2,8.7C274.8-163.9,280.4-159.6,282.6-159.6z M286.6-139.1
						c-0.1,0.1-0.2-0.1-0.2-0.4c0-0.4,0.1-0.6,0.2-0.2C286.7-139.5,286.7-139.2,286.6-139.1z M289.8-155.4c-0.6,2.1-1.3,5.7-1.9,8
						c-0.4,2.3-0.9,4.7-1,5.3c-0.1,0.9-0.1,0.9-0.1-0.2c-0.1-1.6,0.7-5.8,1.9-10.7c1.3-5.5,1.6-6.2,1.9-6.2
						C290.7-159.1,290.4-157.5,289.8-155.4z M294-169.2c-0.1,0.4-0.3,0.8-0.6,0.8c-0.3,0-0.1-1.3,0.2-1.8
						C294-170.5,294.1-169.9,294-169.2z M298.1-178.2c-0.3,0.3-0.3,0.3-0.2-0.2c0.2-0.3,0.3-0.6,0.4-0.4S298.3-178.4,298.1-178.2z
						 M321.4-153c-0.3,2.3-0.8,4.3-0.8,4.3s-0.9-1-1.9-2.3c-2.4-3.3-5.5-6.8-8.8-10.4l-3-3l8-4c4.5-2.2,8.2-4.1,8.5-4.2
						C323.8-172.8,322.7-160.5,321.4-153z M325.4-137.6c0-0.2,0.2-1.6,0.7-3c0.4-1.6,0.7-2.1,0.7-1.3
						C326.7-141,325.4-136.6,325.4-137.6z M326.9-144.2c-0.1,0.2-0.1,0-0.1-0.4c0-0.6,0-0.7,0.1-0.4
						C327-144.9,327-144.4,326.9-144.2z M327.3-146c0,0.2-0.1,0-0.1-0.4c0-0.4,0.1-0.7,0.1-0.4C327.4-146.7,327.4-146.2,327.3-146z
						 M327.6-148.3c-0.1,0.1-0.1-0.1-0.1-0.4c0-0.4,0.1-0.4,0.2-0.2C327.8-148.8,327.8-148.4,327.6-148.3z M328-150.5
						c-0.1,0.1-0.2-0.1-0.2-0.4c0-0.4,0.1-0.4,0.2-0.2C328.2-150.9,328.2-150.6,328-150.5z M332.4-159.7c0-0.4,0.1-0.6,0.2-0.2
						c0.1,0.2,0.1,0.6,0,0.7C332.5-159.1,332.4-159.4,332.4-159.7z M332.3-158c0.1,0.3,0.1,0.8,0,1c-0.1,0.3-0.2,0-0.2-0.6
						C332.2-158.1,332.2-158.4,332.3-158z M331.2-152.8c0.3-1.9,0.7-3.5,0.8-3.5c0.1,0.1-0.4,3.8-1.1,8.2c-0.8,4.5-1.4,8.2-1.7,8.4
						C328.9-139.3,329.6-143.4,331.2-152.8z M329-168.7c-0.3,3.9-1,9.4-2.6,18.9c-0.7,4.2-1.3,8.1-1.6,8.7l-0.2,0.9l-0.1-1.1
						c0-0.6,0.6-4.3,1.2-8.5c0.8-4.1,1.8-10.7,2.3-14.7C328.8-169.2,329.2-170.7,329-168.7z M326.9-164.4c0.1,0.3,0.1,0.8,0,1
						c-0.1,0.2-0.1,0-0.1-0.6C326.8-164.6,326.9-164.7,326.9-164.4z M326.4-160.5l0.3-2.1l-0.1,2.3c-0.1,1.2-0.8,5.6-1.3,9.7
						c-0.7,4-1.3,7.3-1.4,7.3s-0.2-0.4-0.1-1c0.1-0.6,0.7-3.9,1.2-7.6C325.5-155.4,326.1-159.3,326.4-160.5z M317-201.6
						c2.7-2.2,4.7-3.5,5.1-3c1.1,1,2.6,17.9,1.9,20.3c-0.3,0.9-4.1,3-21.3,11.6c-2.7,1.5-3.2,1.7-3.2,1.3c0,0,0.8-2.2,1.9-4.9
						C306.1-188,311.6-196.9,317-201.6z M309.4-201.4l1.1-1.2l-1,1.3c-4.7,6.7-8.8,14.4-12.4,23.3c-2.2,5.6-2.3,5.8-2.3,4.8
						c0-1,3.8-9.9,6.5-15.3C303.8-193.3,307.3-199,309.4-201.4z M305.7-198.8c0.1,0-0.1,0.4-0.4,0.9c-2.4,3.6-7.7,14.3-10.2,20.9
						c-0.7,1.8-1.3,3.2-1.6,3.2c-0.4,0-0.4,0.2,1.3-4.2C297.9-185.8,304.8-198.8,305.7-198.8z M296.1-184.1c0.2-0.3,0.3-0.6,0.4-0.4
						c0.1,0.1,0,0.4-0.2,0.7C296-183.5,296-183.5,296.1-184.1z M295.4-182.5c0.2-0.6,0.4-0.8,0.4-0.6c0,0.2-0.2,0.8-0.4,1.2
						c-0.3,0.6-0.6,0.8-0.6,0.6C294.8-181.5,295.1-182.1,295.4-182.5z M294.3-180.1c0.3-0.4,0.6-0.7,0.6-0.6c0,0.2-0.2,0.8-0.6,1.2
						c-0.2,0.6-0.4,0.8-0.4,0.6S294.1-179.6,294.3-180.1z M292.7-176c0.4-0.8,0.7-1.1,0.4-0.6c-0.2,1-1.1,2.8-1.1,2.2
						C292.1-174.4,292.4-175.2,292.7-176z M291.8-168.6c-0.2,0.7-0.6,1.2-0.7,1.2c-0.3,0,0.1-1.8,0.7-2.8
						C292.5-171.4,292.5-170.2,291.8-168.6z M290.1-168.8c0.9-2.4,0.9-2.6,1.1-2.3c0.1,0.1-0.2,1-0.6,2.1
						C289.5-166.3,289.2-166,290.1-168.8z M288.2-157.9c0.2-0.7,0.4-1.2,0.7-1.2c0.1,0-0.1,1.4-0.6,3.2c-0.4,1.8-1.1,4.9-1.6,6.9
						c-0.4,2-0.9,5.5-1,7.8l-0.3,4.1v-3.8C285.3-145.2,286-149.7,288.2-157.9z M287.4-158.8c0.1,0,0,1.1-0.3,2.3
						c-0.3,1.3-1,4.1-1.3,6.1c-0.4,2-0.9,5.1-1.1,6.7l-0.3,3l0.1-3.1c0.1-2.7,0.9-6.8,2.6-14.3C287-158.5,287.3-158.8,287.4-158.8z
						 M281-170.9c1.9-0.9,5.7-1.4,5.7-0.8c0,0.2-0.4,1.7-1,3.3c-0.8,2.4-1.1,3-1.9,3.2c-1.2,0.3-4.6,0.3-5.5-0.1
						C275.9-166.2,277.5-169.4,281-170.9z M275.4-170.8c0.2-0.4,0.6-0.8,0.6-0.8c0.1,0,0,0.3-0.1,0.8c-0.2,0.3-0.6,0.7-0.6,0.7
						C275.1-170.2,275.2-170.5,275.4-170.8z"/>
				</g>
			</g>
		</g>
		<g>
			<g transform="translate(192.804147, 219.982854)">
				<g>
					<path class="st0" d="M318.3-152c-0.3,0.1-0.6,0.1-0.4,0c0-0.2-0.1-0.3-0.3-0.4c-0.2-0.1-1.2,1.6-2.2,3.6
						c-1.7,3.1-2.2,3.9-3.7,4.8c-2.1,1.4-5.3,2.2-6.1,1.6c-1.1-1-2.2-7.4-1.8-10.6l0.2-1.7h1.6c2.1-0.1,4.1-1.4,6.5-4.6
						c4.2-5.6,6.5-12.3,5.5-16c-0.6-2-1.8-3.8-3.3-4.6c-0.7-0.3-1.7-1.1-2.4-1.8c-3.3-2.9-7.6-2.1-11.7,2.2
						c-4.8,5.1-7.7,13.6-7.7,21.9c0,6.5,1.3,10.2,4.9,14.6c1.1,1.3,2.8,2.8,3.7,3.2c0.8,0.6,2.2,1.5,3,2.1c0.9,0.7,1.9,1.3,2.5,1.4
						c2.8,0.8,5,0.1,7.6-2.3c1.1-1.1,2.2-2.3,2.3-2.9c0.6-1.6,2.6-8.4,2.7-8.9C318.9-151.7,318.7-152.2,318.3-152z M311.5-162.4
						c-0.4,0.6-0.9,1.3-1.2,1.6c-0.2,0.2,0-0.3,0.6-1.1C311.9-163.7,312.4-163.9,311.5-162.4z M313.1-165.3c-1,2-1.3,1.9-0.3-0.1
						c0.4-0.9,0.8-1.6,0.9-1.4S313.5-166,313.1-165.3z M314.6-169.5c0.2-0.3,0.2-0.2,0,0.3c-0.1,0.6-0.3,1.2-0.6,1.4
						c-0.2,0.4-0.2,0.3,0-0.3C314.1-168.5,314.4-169.2,314.6-169.5z M312.5-166.6c0.3-0.9,0.9-2.2,1.1-3c0.6-1.4,0.6-1.4,0.3-0.2
						c-0.1,0.7-0.6,2.1-1,3.1c-0.4,1-0.9,1.9-1,1.9C311.8-164.8,312-165.6,312.5-166.6z M310.9-174.3c0.8-0.6,0.8-0.6,0.8,0.3
						c0,3-2.7,9.7-4.8,11.9c-1.1,1.2-2.3,2.2-2.3,2c0-0.1,0.4-1.6,0.9-3.1C306.6-166.5,309.9-173.3,310.9-174.3z M297.8-158.4
						c-0.1,0.2-0.2,0-0.2-0.4c0-0.6,0.1-0.8,0.2-0.4C297.9-159,297.9-158.7,297.8-158.4z M297.4-165.3c-0.4,0,0-1.1,1.3-4
						c1.4-2.9,1.4-2.8,0,1.1C298.1-166.5,297.5-165.3,297.4-165.3z M298.8-165.2c-0.4-0.7,2.8-8,4-9c0.2-0.2,0,0.4-0.6,1.6
						c-0.4,1-1.4,3.2-2.1,4.9C299.6-166.2,298.9-164.9,298.8-165.2z M300.6-164.8c0.6-3,3.9-9.8,5.2-11c0.3-0.2-0.1,0.7-0.9,2
						c-0.8,1.3-2.1,4.2-3,6.3C301-165.4,300.4-164.2,300.6-164.8z M302.9-160.4c-0.1-0.7,1.3-5.3,1.6-5.1c0,0-0.3,1.3-0.8,2.9
						C303.2-161,302.9-160,302.9-160.4z M316.2-145.4c-0.1,0.1-0.2,0-0.2-0.2c0-0.3-0.2-0.3-0.3-0.2c-0.2,0.1-0.3-0.1-0.1-0.4
						c0.2-0.6,0.2-0.6,0.6,0C316.2-146,316.3-145.5,316.2-145.4z M311.2-195c-1.6-2.2-3.1-6.3-3.7-9.9c-0.8-4.7-1.2-5.9-2.5-6.9
						c-0.6-0.4-1.4-0.8-1.9-0.8c-0.4,0.1-0.8,0-0.8-0.2c0-0.1-0.2-0.2-0.4-0.2c-0.2,0.1-0.9-0.4-1.6-1c-0.9-1.1-1.1-1.2-2.1-0.9
						c-0.6,0.2-1.2,0.8-1.6,1.3c-0.8,1.7,0.3,8.4,2,11.8c2,4.3,5.1,7.8,8.2,9.2c0.7,0.3,1.9,0.9,2.6,1.3c1.3,0.9,1.8,1,2.3,0.3
						C312.7-191.7,312.5-193.5,311.2-195z"/>
				</g>
			</g>
		</g>
		<g>
			<g transform="translate(215.028081, 219.982854)">
				<g>
					<path class="st0" d="M348.1-202.5c1-3.9,0.4-6.2-1.2-6.2c-0.3,0-1.2-0.6-2-1.2c-1.4-1.3-1.6-1.3-2.9-0.7
						c-1.3,0.7-2.3,1.8-3.6,4.3c-3.5,6.9-6.2,15.8-7.9,26l-0.2,1.2l-1.9-0.6c-1-0.3-2.7-1.1-3.6-1.7c-1-0.7-2.7-1.3-3.7-1.6
						c-5.9-1.2-13,3.7-17,11.9c-3,5.9-4.5,11.8-4.5,18.4c0,5.1,0.2,6,2.6,9.1c1.6,2.2,5,4.5,6.8,4.6c0.7,0,1.9,0.3,2.7,0.8
						c3.7,2.3,6,0.3,10.9-9.4c1.2-2.5,3.2-6.8,4.5-9.7c2.1-4.9,2.3-5.2,2.4-3.9c0.2,3.3,1.6,12.1,2.2,14.3c1.9,6.2,4.2,9.6,8.1,11.5
						c1.3,0.8,3,1.3,3.6,1.3c0.7,0,1.4,0.1,1.7,0.3c0.8,0.6,1.7,0.4,2.3-0.2c0.7-0.7,0.7-0.6-0.6-1.8c-3.9-4.1-5.7-14-5-27
						C342.6-176.2,344.4-187.7,348.1-202.5z M347.4-205.6c0.1,0.3,0.1,0.6,0,0.7c-0.1,0.2-0.2,0-0.2-0.4
						C347.3-205.7,347.3-205.8,347.4-205.6z M301.1-151.6c-0.1,0.2-0.2,0-0.2-0.4c0-0.4,0.1-0.7,0.2-0.4S301.2-151.8,301.1-151.6z
						 M304.8-156.6c-0.1,0.8-0.3,2.9-0.4,4.6l-0.3,3l0.1-3.6c0.1-1.9,0.3-4,0.6-4.6C305-158.1,305.1-158,304.8-156.6z M305.6-148.7
						c-0.7-3.3,0.8-13.1,2.5-15.9c0.3-0.6,0.4-0.8,0.3-0.3c-1.3,3.9-2,7.9-2.1,12.3C306.1-147.2,306-146.8,305.6-148.7z
						 M309.2-155.4c-0.1,0.1-0.2,0-0.2-0.4c0-0.3,0.1-0.4,0.2-0.2C309.3-155.7,309.3-155.5,309.2-155.4z M310.7-165.4
						c-1.1,3-2,6.9-2.5,10.1c-0.2,1.7-0.4,3.8-0.6,4.8c-0.1,1.8-0.1,1.8-0.2,0.3c-0.2-2.2,0-5.5,0.7-8.2c0.6-2.9,2.4-8.5,2.9-8.7
						C311.3-167.2,311.2-166.5,310.7-165.4z M311.3-148.2c0,0.8-0.1,0-0.1-1.4c0-1.6,0.1-2.2,0.1-1.3
						C311.4-150.2,311.4-148.9,311.3-148.2z M327.1-166.6c-1.1,1.7-2.7,4.5-3.7,6.1c-0.9,1.6-2,3.6-2.4,4.3
						c-1.3,2.5-3.9,6.4-5.6,8.5c-0.9,1.1-1.8,2-1.9,2c-0.2,0-0.3-1.7-0.3-3.8c0-9.8,4.6-19.9,10.5-23.3c2.6-1.4,3-1.4,4.3,0.6
						c0.7,1,1.1,1.9,1.1,2.1C329.1-169.8,328.2-168.3,327.1-166.6z M346.7-202.7c0.1,0.2,0.1,0.6,0,0.7c-0.1,0.1-0.2-0.1-0.2-0.4
						C346.5-202.9,346.6-203,346.7-202.7z M346.4-201.2c0.1,0.2,0.1,0.6,0,0.7c-0.1,0.1-0.2-0.1-0.2-0.6
						C346.2-201.5,346.3-201.6,346.4-201.2z M337.4-192.3c1.3-4.7,3.5-10.8,3.7-10.6c0.1,0.1-0.4,1.8-1.1,3.8
						c-2.1,6.2-3.9,14-4.8,20.5c-0.2,1.8-0.6,3.2-0.8,3.2C333.8-175.4,335.7-186,337.4-192.3z M334.5-150.1c-1-6-1.4-17.6-0.8-19.4
						c0.2-0.4,0.3,2.3,0.3,6.5c0,5,0.2,8.6,0.6,11.1C335.3-147.7,335.1-146.3,334.5-150.1z M336.8-145.7c-0.1,0-0.4-1.1-0.7-2.3
						c-2-8.9-1.7-24.1,0.8-36.8c1.3-7,4.7-18,6.5-21.5c1.1-2.2,1-1.6-0.3,2.1c-3.7,10.1-6.1,20.7-7.1,31.8
						c-0.8,7.8-0.3,19.5,0.9,25.6C336.9-146.2,336.9-145.7,336.8-145.7z M337.6-173.1c-0.2,1.9-0.4,6.3-0.7,9.7l-0.3,6.2l0.2-7
						c0.1-9.5,1.4-19,3.7-28.1c1-3.7,3.2-11.1,4.2-13.6c1.3-3.3,1.4-2.8,0.2,0.8C341.4-195,339-184.9,337.6-173.1z M340.7-147.9
						c-0.1,0.3-0.1,0.1-0.1-0.6c0-0.8,0-1,0.1-0.7C340.8-148.8,340.8-148.2,340.7-147.9z M340.3-154c0.3,4.1,0.1,5.1-0.2,1.3
						c-0.7-6.8,0.4-22.2,2.5-32.8c0.7-3.9,3.3-14.8,3.6-14.6c0,0-0.4,2.3-1.1,5C341.8-182.4,339.7-163.8,340.3-154z"/>
				</g>
			</g>
		</g>
		<g>
			<g transform="translate(254.295944, 219.982854)">
				<g>
					<path class="st0" d="M338.8-152c-0.3,0.1-0.6,0.1-0.4,0c0-0.2-0.1-0.3-0.3-0.4c-0.2-0.1-1.2,1.6-2.2,3.6
						c-1.7,3.1-2.2,3.9-3.7,4.8c-2.1,1.4-5.3,2.2-6.1,1.6c-1.1-1-2.2-7.4-1.8-10.6l0.2-1.7h1.6c2.1-0.1,4.1-1.4,6.5-4.6
						c4.2-5.6,6.5-12.3,5.5-16c-0.6-2-1.8-3.8-3.3-4.6c-0.7-0.3-1.7-1.1-2.4-1.8c-3.3-2.9-7.6-2.1-11.7,2.2
						c-4.8,5.1-7.7,13.6-7.7,21.9c0,6.5,1.3,10.2,4.9,14.6c1.1,1.3,2.8,2.8,3.7,3.2c0.8,0.6,2.2,1.5,3,2.1c0.9,0.7,1.9,1.3,2.5,1.4
						c2.8,0.8,5,0.1,7.6-2.3c1.1-1.1,2.2-2.3,2.3-2.9c0.6-1.6,2.6-8.4,2.7-8.9C339.4-151.7,339.2-152.2,338.8-152z M332-162.4
						c-0.4,0.6-0.9,1.3-1.2,1.6c-0.2,0.2,0-0.3,0.6-1.1C332.4-163.7,332.9-163.9,332-162.4z M333.6-165.3c-1,2-1.3,1.9-0.3-0.1
						c0.4-0.9,0.8-1.6,0.9-1.4S334-166,333.6-165.3z M335.1-169.5c0.2-0.3,0.2-0.2,0,0.3c-0.1,0.6-0.3,1.2-0.6,1.4
						c-0.2,0.4-0.2,0.3,0-0.3C334.6-168.5,334.9-169.2,335.1-169.5z M333-166.6c0.3-0.9,0.9-2.2,1.1-3c0.6-1.4,0.6-1.4,0.3-0.2
						c-0.1,0.7-0.6,2.1-1,3.1c-0.4,1-0.9,1.9-1,1.9C332.3-164.8,332.5-165.6,333-166.6z M331.4-174.3c0.8-0.6,0.8-0.6,0.8,0.3
						c0,3-2.7,9.7-4.8,11.9c-1.1,1.2-2.3,2.2-2.3,2c0-0.1,0.4-1.6,0.9-3.1C327.1-166.5,330.4-173.3,331.4-174.3z M318.3-158.4
						c-0.1,0.2-0.2,0-0.2-0.4c0-0.6,0.1-0.8,0.2-0.4C318.4-159,318.4-158.7,318.3-158.4z M317.9-165.3c-0.4,0,0-1.1,1.3-4
						c1.4-2.9,1.4-2.8,0,1.1C318.6-166.5,318-165.3,317.9-165.3z M319.3-165.2c-0.4-0.7,2.8-8,4-9c0.2-0.2,0,0.4-0.6,1.6
						c-0.4,1-1.4,3.2-2.1,4.9C320.1-166.2,319.4-164.9,319.3-165.2z M321.1-164.8c0.6-3,3.9-9.8,5.2-11c0.3-0.2-0.1,0.7-0.9,2
						c-0.8,1.3-2.1,4.2-3,6.3C321.5-165.4,320.9-164.2,321.1-164.8z M323.4-160.4c-0.1-0.7,1.3-5.3,1.6-5.1c0,0-0.3,1.3-0.8,2.9
						C323.7-161,323.4-160,323.4-160.4z M336.7-145.4c-0.1,0.1-0.2,0-0.2-0.2c0-0.3-0.2-0.3-0.3-0.2c-0.2,0.1-0.3-0.1-0.1-0.4
						c0.2-0.6,0.2-0.6,0.6,0C336.7-146,336.8-145.5,336.7-145.4z"/>
				</g>
			</g>
		</g>
		<g>
			<g transform="translate(276.519888, 219.982854)">
				<g>
					<path class="st0" d="M342.5-148.3c-0.6-1.7-3.5-4.9-6-6.7c-7.5-5.2-8.6-6.6-7.8-10.1c0.9-4.6,4.7-9.5,7.8-10.4
						c1.3-0.3,1.6-0.3,2.9,0.6c1.6,1,2.3,1,2.8,0c0.4-1.1-0.3-2.2-2.1-3.6c-0.9-0.7-2-1.6-2.5-2c-2.9-2.7-6.3-3.1-9.9-1.3
						c-6.7,3.3-11,12.2-8.6,17.5c1.4,3,4.3,6.2,7.5,8.4c3.1,2.1,5.6,4.3,5.8,5.1c0.4,1.4-0.4,4.3-1.9,6.3c-2.8,3.8-6.9,4.8-9.9,2.3
						c-1.4-1.2-2.3-1.2-2.9-0.3c-0.7,1,0.3,2.3,3.2,4.6c3.5,2.6,4.6,3.2,6,3.8c1.9,0.7,5.8,0.4,8-0.6c2.2-1.1,5.8-4.7,6.9-6.9
						C342.8-143.8,343.1-146.5,342.5-148.3z M322.1-168.4c-0.3,0-0.1-1,0.6-2.3c0.4-0.8,0.7-1.1,0.6-0.7c-0.1,0.3-0.4,1.2-0.6,1.8
						C322.4-168.9,322.2-168.4,322.1-168.4z M323.1-167.4c-0.3,0,0.2-2.6,1-4.1c1-2,1.7-2.5,0.9-0.6c-0.3,0.8-0.9,2.1-1.1,3
						C323.6-168.2,323.2-167.4,323.1-167.4z M325.2-168.7c-0.2,0.6-0.3,0.7-0.4,0.2c0-0.8,1.6-4.1,2.5-5.2c0.6-0.7,0.4-0.2-0.4,1.6
						C326.2-170.7,325.5-169.3,325.2-168.7z M327.3-166.6c0-0.3,0.1-0.8,0.3-1.1c0.1-0.3,0.3-0.3,0.2-0.2
						C327.9-167.3,327.3-166,327.3-166.6z M335.1-145.4c0.4-1.6,0.7-1.7,0.7-0.8c0,0.3-0.2,1-0.6,1.3
						C334.8-144.2,334.8-144.3,335.1-145.4z M335.6-143.5c0.1-0.3,0.6-1.3,0.8-2.2c0.4-1.2,0.7-1.4,0.8-0.8c0,0.4-0.2,1.3-0.7,2.2
						C335.8-143,335.1-142.3,335.6-143.5z M338-144.3c-0.2,0.8-1.6,2.8-1.6,2.3c0-0.1,0.4-0.9,0.9-1.7
						C337.9-144.7,338.2-144.9,338-144.3z"/>
				</g>
			</g>
		</g>
	</g>
</g>
</svg>
