<?xml version="1.0" encoding="utf-8"?>
<!-- Generator: Adobe Illustrator 27.5.0, SVG Export Plug-In . SVG Version: 6.00 Build 0)  -->
<svg version="1.1" id="Calque_1" xmlns="http://www.w3.org/2000/svg" xmlns:xlink="http://www.w3.org/1999/xlink" x="0px" y="0px"
	 viewBox="0 0 595.1 86.1" style="enable-background:new 0 0 595.1 86.1;" xml:space="preserve">
<style type="text/css">
	.st0{fill:#FFFFFF;}
</style>
<g>
	<g>
		<g transform="translate(82.646343, 78.80305)">
			<g>
				<path class="st0" d="M-77.2-37.6c1,0.7,2.5,1.7,3.3,2.3c1.8,1.6,4.5,2.3,7.2,2.3c3.2,0,4.7-0.6,5.1-1.8c0.3-0.9,0.3-1-0.2-1
					c-0.3,0-1.9-0.6-3.2-1.2c-1.4-0.7-3.9-1.7-5.5-2.2c-1.6-0.6-2.9-1.1-2.9-1.4c-0.3-0.9,1.6-4.2,3.7-6.6
					c8.2-8.9,23.8-15.9,42.1-19c7.9-1.3,19.6-1,22.4,0.7c0.8,0.6,0.2,1.8-2.2,5.5c-2.6,3.9-9.2,10.9-14,14.8
					c-4.1,3.3-15.3,11.5-15.5,11.2c0-0.1,0.4-2.9,1.1-6.1c1.3-7,2.1-13.1,1.8-14.8c-0.2-1.3-1.6-2.8-2.6-2.8
					c-0.4-0.1-0.8-0.3-0.8-0.6c0-0.3-0.2-0.4-0.4-0.3c-0.2,0.1-0.8-0.4-1.2-1.1c-0.7-1.3-1.6-1.7-3.1-1.3c-2.4,0.7-4.8,8.4-7.1,23.2
					c-0.9,5.5-0.9,16.2,0,19.1c1.3,4.5,5.2,10,7,10c0.3,0,1.4,0.7,2.5,1.6c1,0.9,2,1.4,2.3,1.4C-37.2-6-37-6-37-5.8
					c0,1.1-9.1,1.2-12.6,0.2c-3.6-1-7.9-3.7-7.9-4.7c0-0.7-1.4-0.4-1.7,0.1c-0.9,2.1,5,7.4,12.5,11c4.2,2.1,5.7,2.7,8.5,2.9
					C-33.7,4.4-30,3.5-25.3,1c4.6-2.4,7.4-4.6,10.9-7.9c5.3-5.2,8.1-9.7,8.5-13.8c0.2-2.9-0.7-4.8-3.2-7.5c-1-1-2.2-2.4-2.8-3.1
					c-1.1-1.4-4.1-3.1-5.7-3.1c-0.6,0-1-0.1-1-0.2c0-0.2,2.1-1.9,4.7-3.8C3.5-51.5,7.7-59.8,1.1-67.3c-0.7-0.7-1.4-1.8-1.8-2.4
					c-1-1.9-3.8-4.5-5.9-5.5c-3.8-1.8-6.2-2.2-13.6-2.2s-12.1,0.7-19.8,2.7c-22.7,5.9-42.7,19.6-42.7,29.2
					C-82.6-42.9-80.6-40.1-77.2-37.6z M-42.4-50.7c0.3-1.8,1.4-5.8,1.9-6.3c0.6-0.7,0.4-0.6-0.9,3.9C-42.4-49.5-42.7-49-42.4-50.7z
					 M-43.8-32.8c-0.1,0.2-0.2,0-0.2-0.4c0-0.4,0.1-0.7,0.2-0.4C-43.8-33.5-43.8-33.1-43.8-32.8z M-43.4-35.5
					c-0.1,0.3-0.2,0.1-0.2-0.7c0-0.7,0.1-0.9,0.2-0.6C-43.3-36.4-43.3-35.8-43.4-35.5z M-39.6-54.1c-0.2,1-1.2,5.2-2.1,9.4
					c-0.8,4-1.6,7.1-1.6,6.8c-0.1-1.6,3.2-17.6,3.9-18.7C-38.9-57.6-39-56.1-39.6-54.1z M-19.7-39.4c0.6-0.3,0.6-0.3,0.1,0.2
					c-0.2,0.3-0.6,0.6-0.6,0.6C-20.5-38.6-20.3-38.8-19.7-39.4z M-9.6-15.2c0.3-0.6,0.7-1.1,0.8-1.1c0.1,0-0.1,0.6-0.4,1.1
					c-0.2,0.6-0.6,1.1-0.7,1.1C-10-14.1-9.8-14.7-9.6-15.2z M-10.8-18.2c0,0.7-1.9,3.5-3.8,5.6c-1.1,1.1-2.8,2.7-3.8,3.5l-1.8,1.4
					l1.6-1.4c2.1-2,5.7-6.1,6.9-7.9C-11.2-17.9-10.8-18.5-10.8-18.2z M-10.9-21c-0.1,0.6-0.8,1.9-1.4,2.9c-0.6,1-2.2,3-3.6,4.5
					c-1.3,1.4-2.1,2.1-1.6,1.4c2.6-3,3.8-4.8,5.2-7.2C-11.2-21.2-10.8-21.8-10.9-21z M-12-21.9c0.3,0-0.9,2.5-1.9,4
					c-0.7,0.9-1.3,1.7-1.6,1.8c-0.2,0.2,0.1-0.4,0.7-1.2c0.7-0.9,1.4-2.2,1.9-3.1C-12.6-21.2-12.1-21.9-12-21.9z M-14.8-25.9
					c0.4,0.2,0.3,0.6-0.1,1.7c-2.6,6.3-11.1,14.5-18.5,17.6c-2.8,1.1-3.8,1.2-2.5,0.2c1.2-0.9,1.2-1.8,0.3-3
					c-0.8-1.1-1.8-5.3-2.1-9.5c-0.3-3.8-0.2-4.6,0.7-4.1c0.3,0.2,1.4,0,3.7-0.7c4.9-1.7,9.6-2.6,14-2.5C-17-26.1-15-26-14.8-25.9z
					 M-10.6-46.4c-2,1.7-4.3,3.6-5.1,4.2c-1.8,1.3-1.4,1,4.1-4c3.3-2.9,7-6.7,9.2-9.6l0.8-1l-0.6,1.1C-3-53.8-6.7-49.8-10.6-46.4z
					 M-0.7-53.1c1.8-2.6,2.1-2.9,1.3-1.2c-0.4,0.8-1.2,1.8-1.8,2.2C-1.9-51.3-1.8-51.4-0.7-53.1z M-1.2-60.1c0,0.9-2,3.8-4.6,6.8
					c-1.4,1.7-3.8,4.1-5.2,5.3c-1.6,1.3-2.7,2.3-2.6,2.2c0.1-0.1,1.9-2,4-4.2c2.2-2.2,4.9-5.6,6.1-7.3C-2.2-59.1-1.2-60.3-1.2-60.1z
					 M-2.8-60.2c0.3,0-1.7,3.3-3.1,5.2c-0.9,1-1.7,1.9-2,2c-0.2,0.1,0.3-0.7,1.1-1.7c0.8-1,2-2.7,2.7-3.7
					C-3.4-59.3-2.9-60.2-2.8-60.2z M-73.6-50c0.9-0.7,0.8-0.6-0.2,0.9c-0.7,1-1.7,2.5-2,3.3c-0.9,1.6-1.3,2-0.9,0.7
					C-76.4-46.2-74.6-49-73.6-50z M-76.1-49.1c0.1,0-0.3,1-0.9,2.2c-1.2,2.3-1.4,2.6-1.4,1.9C-78.4-45.5-76.3-49.3-76.1-49.1z
					 M-78.5-47.3c0.4-0.7,0.4-0.7,0.1,0.2c-0.6,1.1-0.7,1.3-0.7,0.8C-79.1-46.4-78.9-46.9-78.5-47.3z"/>
			</g>
		</g>
	</g>
	<g>
		<g transform="translate(144.472334, 78.80305)">
			<g>
				<path class="st0" d="M-21.5-3.5c-0.2-0.1-0.4,0-0.6,0.2c-0.2,0.2-0.4,0.1-0.8-0.3c-0.3-0.3-0.7-0.7-0.9-0.7
					c-0.3,0-0.7-0.9-0.9-1.9c-1-5.6-1.1-7.7-0.9-21.2c0.2-11.9,0.2-13.8-0.3-14.9c-0.2-0.8-0.7-1.3-1-1.3c-0.2,0-0.7-0.2-0.9-0.4
					c-0.4-0.4-1.1-0.6-2.8-0.7c-0.8-0.1-1.2-0.2-1.2-0.7c0-0.3-0.1-0.2-0.4,0.3l-0.6,0.9v-1.1c0-1.4-0.7-1.8-2.1-1.1
					c-0.7,0.2-1.1,0.7-1.2,1.4c-0.1,0.6-0.4,1.1-0.6,1.1c-0.2,0.1-1.2-0.2-2.3-0.8c-1.1-0.6-2.8-1.2-3.7-1.3
					c-3.5-0.4-8.8,2.2-11.8,5.9c-1.6,2-3.8,6.6-4.9,10c-2.2,7-2.7,15.8-1,19.6c1.3,3,5.2,6.1,7.8,6.1c0.6,0,1.6,0.3,2.3,0.9
					c3.8,2.6,6.5-0.3,10.6-11.6c0.9-2.3,1.7-4.6,1.8-4.9c0.1-0.3,0.7,1.3,1.1,3.7c1.2,6.2,2.7,9.6,4.9,11.8c1.2,1.2,2.5,2,3.5,2.2
					c0.8,0.2,1.7,0.6,1.9,0.8c0.2,0.2,0.9,0.4,1.4,0.7c1.1,0.3,2.8,0.1,3.6-0.4C-20.9-1.6-20.9-3.1-21.5-3.5z M-56-22.2
					c-0.1,1-0.3,3.5-0.4,5.6l-0.3,3.7l0.1-4.5c0.1-2.5,0.3-4.9,0.6-5.5C-55.8-23.8-55.8-23.7-56-22.2z M-54.7-16.7
					c-0.1,4.8-0.2,5.5-0.6,4c-0.4-2.7,0-9.5,0.9-12.6c0.8-2.5,1.8-4.8,1.2-2.8c-0.1,0.4-0.4,1.9-0.8,3.1
					C-54.1-23.6-54.5-19.9-54.7-16.7z M-51.7-20.7c-0.1,0.1-0.2-0.1-0.1-0.4c0-0.4,0.1-0.6,0.2-0.2C-51.6-21.1-51.6-20.8-51.7-20.7z
					 M-51.3-22.5c-0.1,0.1-0.1-0.1-0.1-0.4c0-0.4,0.1-0.6,0.2-0.2C-51.1-22.9-51.1-22.6-51.3-22.5z M-52.9-17.2
					c-0.1,0.8-0.2,1.7-0.4,2.1c-0.4,1,0-5.5,0.7-8.5c0.6-2.8,1.7-6.3,2.4-7.7c0.3-0.6,0.4-0.6,0.3-0.1
					C-51.5-26.9-52.9-20.2-52.9-17.2z M-49.4-16.1c0,1.1-0.1,2.3-0.3,2.8c-0.2,0.4-0.2-0.3-0.1-2C-49.6-18.6-49.3-19-49.4-16.1z
					 M-37.9-36.5c-1.1,3.9-6.9,17.5-8.8,20.7c-0.6,1-1.1,1.9-1.1,1.9c-0.2,0-0.2-1,0.2-4.1c0.9-7.1,3.8-14,7.7-18.3
					C-37.9-38.5-37.2-38.5-37.9-36.5z M-33.6-21.4c-0.2,0-0.3-7.2-0.1-8.2c0.1-0.7,0.2,1,0.2,3.6S-33.5-21.4-33.6-21.4z M-32-16.3
					c-0.6,0-0.8-16.4-0.2-17.5c0.2-0.3,0.3,2.6,0.3,8.5C-31.9-20.5-31.9-16.3-32-16.3z M-30-35.6c0,0.9-0.1,3.1-0.3,4.7
					c-0.2,2.6-0.2,2.3-0.1-1.6c0.1-2.4,0.2-4.7,0.3-4.7C-30-37.3-30-36.6-30-35.6z M-26.7-34.7c-0.1,2.3-0.2,5.8-0.3,7.6
					c-0.2,2-0.2,0.4-0.1-4.2c0.1-4.1,0.2-7.6,0.3-7.6C-26.8-39.1-26.7-37.2-26.7-34.7z"/>
			</g>
		</g>
	</g>
	<g>
		<g transform="translate(177.474057, 78.80305)">
			<g>
				<path class="st0" d="M-17.1-47.4c-2.6-1.6-3-1.7-5-1.7c-4.5,0-7.7,2.8-11.9,10.4c-1.1,2.1-1.7,2.7-1.6,2c0.7-3.3,1-8,0.8-9.2
					c-0.2-1.2-0.2-1.3-0.8-0.7C-36-46-36-46-36-47c0-1-1.2-1.8-2-1.1c-0.3,0.2-0.4,0.1-0.4-0.3c0-0.4-0.2-0.4-0.8-0.3
					c-0.4,0.1-0.7,0.1-0.7-0.3c0-0.3-0.4-1-1-1.4c-2.4-2.3-5.8,1.6-7.5,8.8c-0.3,1.6-1.1,5.6-1.7,8.9c-0.9,5.1-1,7.1-1,13.5
					c0,8,0.2,9.8,2.5,14.5c1.2,2.4,3.3,4.1,4.8,3.7c0.9-0.2,1.2-0.1,2.5,1.1c1.6,1.6,2.4,1.8,2.6,0.8c0-0.6,0-0.6,0.2,0.1
					c0.3,0.6,0.3,0.6,0.9-0.2c0.4-0.7,0.6-1.3,0.3-3.6c-0.4-6.7,2.2-18.2,6.3-26.8c3.8-8.1,8.5-12.6,13.9-13.5
					c1.2-0.1,2.3-0.1,2.8,0c0.9,0.3,2,0.2,2-0.3C-12.3-44.1-14.4-45.8-17.1-47.4z M-46.7-17.9c-0.1,0.6-0.2,0.1-0.2-0.9
					c0-1.1,0.1-1.6,0.2-1C-46.7-19.2-46.7-18.5-46.7-17.9z M-46.6-24.5c-0.1-4.5,2.8-18.9,4.2-20.9c0.2-0.4,0.3-0.3,0.1,0.2
					C-44-38.8-44-38.6-45-33.1c-0.3,1.7-0.8,4.7-1.1,6.8C-46.5-23.4-46.6-22.9-46.6-24.5z M-44.1-28.6c-0.2,1.6-0.6,5.7-0.7,9.2
					c-0.2,5.2-0.3,6-0.6,4.6c-1-5.3,1.9-25.6,4.5-31.3c1-2.3,1-1.6,0,1.8C-41.8-41-43.6-32.9-44.1-28.6z M-41.8-32.9
					c-0.1,0.2-0.2,0.1-0.2-0.4c0-0.4,0.1-0.7,0.2-0.4C-41.7-33.6-41.7-33.2-41.8-32.9z M-40.1-40.3c-1.8,6.7-1.8,5.8-0.1-1.3
					c1.1-4.6,1.2-5.1,1.6-4.8C-38.7-46.3-39.2-43.5-40.1-40.3z M-39.2-28.7c0-0.8,2.9-15,3.1-15.3c0.2-0.2-0.2,2.2-1.6,9.2
					C-38.8-29-39.2-27.6-39.2-28.7z M-36.8-25.3c-0.4,1.1-0.7,1.3-0.7,0.9c0-0.2,0.2-0.7,0.6-1C-36.3-26-36.3-26-36.8-25.3z
					 M-33.2-31.2c-1.1,2.5-2.8,6.3-3.6,8.7c-0.8,2.2-1.3,3.6-1.2,2.8c0.4-2.7,5.5-14.4,6.6-15.6C-31.2-35.5-32-33.6-33.2-31.2z"/>
			</g>
		</g>
	</g>
	<g>
		<g transform="translate(207.133831, 78.80305)">
			<g>
				<path class="st0" d="M7.3-67.4c1-3.9,0.4-6.2-1.2-6.2c-0.3,0-1.2-0.6-2-1.2c-1.4-1.3-1.6-1.3-2.9-0.7c-1.3,0.7-2.3,1.8-3.6,4.3
					c-3.5,6.9-6.2,15.8-7.9,26l-0.2,1.2l-1.9-0.6c-1-0.3-2.7-1.1-3.6-1.7c-1-0.7-2.7-1.3-3.7-1.6c-5.9-1.2-13,3.7-17,11.9
					c-3,5.9-4.5,11.8-4.5,18.4c0,5.1,0.2,6,2.6,9.1c1.6,2.2,5,4.5,6.8,4.6c0.7,0,1.9,0.3,2.7,0.8c3.7,2.3,6,0.3,10.9-9.4
					c1.2-2.5,3.2-6.8,4.5-9.7c2.1-4.9,2.3-5.2,2.4-3.9c0.2,3.3,1.6,12.1,2.2,14.3c1.9,6.2,4.2,9.6,8.1,11.5c1.3,0.8,3,1.3,3.6,1.3
					c0.7,0,1.4,0.1,1.7,0.3C5.1,2,6,1.9,6.6,1.3c0.7-0.7,0.7-0.6-0.6-1.8c-3.9-4.1-5.7-14-5-27C1.8-41.1,3.6-52.5,7.3-67.4z
					 M6.6-70.5c0.1,0.3,0.1,0.6,0,0.7c-0.1,0.2-0.2,0-0.2-0.4C6.5-70.6,6.5-70.7,6.6-70.5z M-39.7-16.5c-0.1,0.2-0.2,0-0.2-0.4
					c0-0.4,0.1-0.7,0.2-0.4S-39.6-16.7-39.7-16.5z M-35.9-21.5c-0.1,0.8-0.3,2.9-0.4,4.6l-0.3,3l0.1-3.6c0.1-1.9,0.3-4,0.6-4.6
					C-35.8-23-35.7-22.9-35.9-21.5z M-35.1-13.6c-0.7-3.3,0.8-13.1,2.5-15.9c0.3-0.6,0.4-0.8,0.3-0.3c-1.3,3.9-2,7.9-2.1,12.3
					C-34.7-12.1-34.8-11.7-35.1-13.6z M-31.6-20.2c-0.1,0.1-0.2,0-0.2-0.4c0-0.3,0.1-0.4,0.2-0.2C-31.5-20.6-31.5-20.3-31.6-20.2z
					 M-30-30.3c-1.1,3-2,6.9-2.5,10.1c-0.2,1.7-0.4,3.8-0.6,4.8c-0.1,1.8-0.1,1.8-0.2,0.3c-0.2-2.2,0-5.5,0.7-8.2
					c0.6-2.9,2.4-8.5,2.9-8.7C-29.5-32-29.6-31.4-30-30.3z M-29.5-13.1c0,0.8-0.1,0-0.1-1.4c0-1.6,0.1-2.2,0.1-1.3
					C-29.3-15.1-29.3-13.8-29.5-13.1z M-13.6-31.5c-1.1,1.7-2.7,4.5-3.7,6.1c-0.9,1.6-2,3.6-2.4,4.3c-1.3,2.5-3.9,6.4-5.6,8.5
					c-0.9,1.1-1.8,2-1.9,2c-0.2,0-0.3-1.7-0.3-3.8c0-9.8,4.6-19.9,10.5-23.3c2.6-1.4,3-1.4,4.3,0.6c0.7,1,1.1,1.9,1.1,2.1
					C-11.6-34.7-12.5-33.2-13.6-31.5z M6-67.6c0.1,0.2,0.1,0.6,0,0.7c-0.1,0.1-0.2-0.1-0.2-0.4C5.8-67.8,5.9-67.9,6-67.6z M5.6-66.1
					c0.1,0.2,0.1,0.6,0,0.7c-0.1,0.1-0.2-0.1-0.2-0.6C5.4-66.4,5.5-66.5,5.6-66.1z M-3.4-57.2c1.3-4.7,3.5-10.8,3.7-10.6
					C0.4-67.7-0.2-66-0.8-64c-2.1,6.2-3.9,14-4.8,20.5c-0.2,1.8-0.6,3.2-0.8,3.2C-7-40.3-5.1-50.9-3.4-57.2z M-6.3-15
					c-1-6-1.4-17.6-0.8-19.4c0.2-0.4,0.3,2.3,0.3,6.5c0,5,0.2,8.6,0.6,11.1C-5.5-12.6-5.6-11.2-6.3-15z M-3.9-10.5
					c-0.1,0-0.4-1.1-0.7-2.3c-2-8.9-1.7-24.1,0.8-36.8c1.3-7,4.7-18,6.5-21.5c1.1-2.2,1-1.6-0.3,2.1c-3.7,10.1-6.1,20.7-7.1,31.8
					c-0.8,7.8-0.3,19.5,0.9,25.6C-3.8-11.1-3.8-10.5-3.9-10.5z M-3.2-38c-0.2,1.9-0.4,6.3-0.7,9.7L-4.2-22l0.2-7
					c0.1-9.5,1.4-19,3.7-28.1C0.7-60.8,3-68.3,4-70.7c1.3-3.3,1.4-2.8,0.2,0.8C0.6-59.9-1.7-49.8-3.2-38z M0-12.8
					c-0.1,0.3-0.1,0.1-0.1-0.6c0-0.8,0-1,0.1-0.7C0.1-13.7,0.1-13.1,0-12.8z M-0.5-18.9c0.3,4.1,0.1,5.1-0.2,1.3
					c-0.7-6.8,0.4-22.2,2.5-32.8c0.7-3.9,3.3-14.8,3.6-14.6c0,0-0.4,2.3-1.1,5C1.1-47.3-1-28.7-0.5-18.9z"/>
			</g>
		</g>
	</g>
	<g>
		<g transform="translate(246.401694, 78.80305)">
			<g>
				<path class="st0" d="M-9-63.1c-0.2,0-0.8-0.3-1.1-0.8c-1.8-2-4.2-2.2-6.6-0.7c-3.1,2.1-6,6.7-5.1,8.2c0.7,1.3,1.4,1.9,2.2,1.7
					c0.4-0.1,0.8-0.1,0.8,0.1c0,0.2,0.2,0.3,0.6,0.2c0.4-0.2,0.6,0,0.6,0.7c0,0.6,0.2,1,0.6,1.1c1.2,0.4,2.3-0.4,4.7-3.7
					c0.9-1.3,2.2-2.7,3.2-3.3c0.9-0.4,1.7-1.2,1.7-1.6C-7.6-61.9-8.5-63.1-9-63.1z M-13.1-4.4c-1.2-0.8-2-3.5-2.2-7
					c-0.2-3.3,0.3-13.6,1.1-19.4c1-7.3,1.3-12.6,0.9-13.7c-0.2-0.6-0.6-1-0.7-0.9c-0.2,0.1-0.6,0-0.8-0.3c-0.2-0.3-0.7-0.4-0.9-0.3
					c-0.3,0-0.6-0.1-0.6-0.3s-0.2,0-0.6,0.4l-0.4,1l0.1-1c0-0.6-0.1-0.9-0.6-0.9c-0.3,0-1-0.4-1.4-1.1c-1.7-2-4.2-1-5.7,2
					c-2.2,4.6-3.2,11.9-3,21.8c0.1,5.8,0.3,7.6,1,9.8c1.7,6,4.2,9.6,7.9,10.7c1,0.3,2.1,0.8,2.6,1.1c1.2,1,4,0.4,4-0.8
					C-12.4-3.5-12.7-4.1-13.1-4.4z M-23.3-24.7c-0.2,5.3-0.2,5.9-0.4,4c-0.6-3.5,0.3-12.9,1.6-18.6c0.8-3.6,1.2-4.3,0.7-1
					c-0.2,1.1-0.7,3.7-1,5.7C-22.8-32.5-23.2-28-23.3-24.7z M-21.8-22.4c-0.2,6.1-0.2,6.6-0.6,4.1c-0.6-5.8,1.1-22.5,2.7-25.5
					c0.6-1.2,0.7-0.7,0.1,1.8c-0.3,1.2-0.9,4.6-1.2,7.5C-21.3-31.6-21.7-26.1-21.8-22.4z M-20.3-24.9c-0.1,0.2-0.1,0-0.1-0.6
					c0-0.4,0-0.7,0.1-0.4C-20.1-25.6-20.1-25.3-20.3-24.9z M-17.5-43.5c-0.1,0.6-0.4,2.7-0.9,4.8c-0.3,2.1-0.9,5.5-1.2,7.6
					c-0.6,4.3-0.7,3.3-0.1-1.6c0.4-4.7,1.8-11.7,2.2-11.7C-17.4-44.4-17.3-44-17.5-43.5z M-16.6-23.9c-0.2,2.6-0.4,6-0.4,7.8
					c-0.1,2.7-0.1,2.5-0.1-1.1c-0.1-2.3,0-5.9,0.2-7.8c0.6-5.7,2.2-18.6,2.4-17.6c0,0.4-0.3,3.8-0.8,7.4
					C-15.8-31.6-16.4-26.5-16.6-23.9z"/>
			</g>
		</g>
	</g>
	<g>
		<g transform="translate(264.114011, 78.80305)">
			<g>
				<path class="st0" d="M5.5-33.5c0.7,0.1,1,0.1,1.1-0.2c0.1-0.2,0.2,0,0.2,0.4c0,0.6,0.2,0.7,0.8,0.6c0.9-0.2,2-1.8,3.2-4.2
					c3.6-7.1,1.2-13.8-5.7-16.3c-0.8-0.2-2-0.9-2.8-1.3c-4.6-3-10-1.6-15.3,4.1c-4.8,5.3-7.8,13.8-8.6,24.3
					C-22.2-15.9-20-8.7-14.7-3.5c2.1,2,5.5,4,6.8,4C-7.3,0.5-6,0.8-5,1.3c1.8,0.9,4.1,1.1,5.6,0.7c1.8-0.8,9.2-10.8,9.7-13.1
					c0.2-1.5-0.1-2.3-0.8-1.8c-0.3,0.2-0.4,0.2-0.7-0.2c-0.4-1.1-1.6-0.4-4.7,2.9C1-6.9-2.7-3.9-3.7-3.9c-0.7,0-1.3-0.7-2.4-2.8
					c-3-5.8-2.7-19.8,0.6-28.3c2-5.1,5.6-10.4,8.1-11.8l1.1-0.7L4-46.5c0.6,1.7,0.8,4.5,0.4,7.7C4-34.9,4.2-33.8,5.5-33.5z
					 M9.1-41.6c0.3-0.3-0.1,1.5-1,4.1c-0.3,1.2-0.8,2.2-0.9,2.2c-0.1,0,0-0.3,0.1-0.7s0.6-1.7,0.9-3C8.6-40.3,9-41.5,9.1-41.6z
					 M7.5-39.1c0.1-0.8,0.3-2.2,0.4-3.3l0.2-1.9v1.9c0,1.1-0.2,2.6-0.4,3.3l-0.4,1.4L7.5-39.1z M-19.8-25.4
					c-0.1,0.3-0.2,0.1-0.2-0.4c0-0.4,0.1-0.7,0.2-0.4C-19.7-25.9-19.7-25.6-19.8-25.4z M-17-19.3c0,1-0.1,0.1-0.1-2
					c-0.1-4,0.2-7,1.2-11.2c0.7-3.3,1-2.8,0.3,0.7c-0.3,1.6-0.8,4.6-1,6.7C-16.7-23.1-16.9-20.5-17-19.3z M-15-18.7
					c0.1,2.6,0.1,4.6,0.1,4.6c-0.8,0-1.1-9.2-0.6-13.3c0.6-4.1,1.7-8.9,2.6-10.5c0.3-0.7,0.6-0.9,0.4-0.4
					C-14.7-29.8-15.3-25.4-15-18.7z M-12.2-30.8c-0.4,2-0.9,4.9-1.1,6.5l-0.3,3l0.2-3.7c0.1-4.6,1.1-9.1,2.6-13
					c1.6-4.1,1.9-3.9,0.6,0.2C-11-35.9-11.9-32.7-12.2-30.8z M-9.3-27.4c-0.1,1-0.3,4-0.4,6.7l-0.3,5l0.1-5.5c0.1-3,0.3-6.1,0.6-6.8
					C-9.1-29-9.1-28.9-9.3-27.4z"/>
			</g>
		</g>
	</g>
	<g>
		<g>
			<g transform="translate(72.535411, 149.749717)">
				<g>
					<path class="st0" d="M307.7-66.4c0-0.2,0.4-0.4,0.9-0.6c1.9-0.4,1.9-2.6,0-2.7c-0.3,0-1-0.2-1.4-0.4c-0.3-0.3-1.3-0.8-2.1-1
						c-5.7-1.4-19.8-10.2-28-17.3c-5-4.3-4.9-4.1-2.5-4.8c9.7-2.8,27.1-16.2,33.3-25.5c2.6-3.8,3.5-6.5,3.5-10
						c0-3.2-1.2-6.1-3.7-9.2c-0.9-1.1-1.9-2.6-2.3-3.3c-1-2-3.9-4.8-6.2-5.9c-4.2-2.1-6.8-2.6-14.6-2.6c-6,0-7.7,0.1-11.1,0.8
						c-18.5,3.8-36.3,13-47.8,25.1c-3.9,4-5.7,6.9-5.9,9.8c-0.2,1.7-0.1,2.2,0.8,3.8c0.6,1,1.7,2.3,2.3,3c0.8,0.6,2,1.7,2.8,2.5
						c2,1.9,3.9,2.7,6.7,2.7c2.6-0.1,3.9-0.3,4-0.9c0-0.2-1.3-1.1-3-1.9c-1.7-0.9-3.3-1.9-3.9-2.2l-0.8-0.6l1-1.7
						c1.2-2.1,6.1-7,9.6-9.8c6.2-4.9,16-10.6,22.8-13.3c14.2-5.5,27.3-6.8,37.1-3.9c2.6,0.8,2.9,1.3,2.4,3
						c-1.8,6.8-10.4,17-20.2,24.1c-4,2.8-15.8,10-16.5,10c-0.2,0-0.4-0.3-0.4-0.7c0-0.8,2.1-10.1,3.1-13.7c1.9-6.9,2.7-12.7,1.4-12
						c-0.1,0.1-0.4-0.2-0.7-0.7c-0.3-0.9-1.5-1.4-2-0.9c-0.2,0.2-0.3,0.1-0.3-0.3c0-0.4-0.1-0.6-0.6-0.6c-0.4,0.1-0.7-0.1-0.7-0.4
						c0-2-2.6-2.9-4.2-1.6c-2.1,1.6-4.6,7.9-7,17.2c-2.8,11.3-3.9,20.1-3.2,26.3c0.8,7.6,2.4,12.1,5.7,15.2c1.7,1.7,6.7,4.5,8,4.5
						c1,0,1.4-0.9,0.9-1.6c-0.1-0.2-0.4-1-0.6-1.7c-0.1-0.7-0.4-2.1-0.8-3.1c-0.6-1.9-1.2-12.8-0.8-12.8c0.1,0,1.1,1.2,2.2,2.7
						c6.8,8.7,21.1,17.6,31.2,19.5c1.3,0.2,2.6,0.4,2.7,0.4s1.4-0.1,2.9-0.4C304.7-64.6,307.7-65.8,307.7-66.4z M223.2-113.3
						c0-0.2,0.2-0.8,0.4-1.2c0.3-0.6,0.6-0.8,0.6-0.6c0,0.2-0.2,0.8-0.6,1.2C223.4-113.3,223.2-113.1,223.2-113.3z M224-112.5
						c0.3-0.8,2.3-4.1,2.6-4.1c0.1,0-0.4,1.1-1.1,2.5C224.1-111.8,223.5-111.1,224-112.5z M228.3-115.8c-0.7,0.9-1.6,2.4-2,3.2
						c-0.9,1.7-1.2,2-0.9,0.7c0.4-1.4,1.1-2.6,2.7-4.1l1.4-1.6L228.3-115.8z M299-113.9c-0.3,0.4-0.7,0.8-0.8,0.8
						c-0.1,0,0.1-0.3,0.4-0.8c0.3-0.3,0.7-0.7,0.8-0.7S299.4-114.2,299-113.9z M305.6-118.7c0.8-1.2,1.6-2.2,1.7-2.2
						c0.2,0-1.1,2.3-2.4,4.1c-0.8,1-1.6,1.9-1.8,1.9c-0.2,0,0-0.3,0.4-0.8C303.8-116.1,304.8-117.4,305.6-118.7z M296.9-117.9
						c1.3-1.6,3.2-4,4-5.2c0.9-1.3,1.7-2.3,1.8-2.2c0.1,0.1-0.6,1.2-1.4,2.6c-0.8,1.2-2.7,3.6-4.1,5l-2.6,2.7L296.9-117.9z
						 M295.1-114.3c3.7-3.9,7.3-8.4,8.7-10.8c1.1-2,1.3-1.6,0.2,0.6c-1.4,2.8-4,6.1-7.8,9.7C291.6-110.2,290.7-109.9,295.1-114.3z
						 M290.7-108.1c2.6-2.1,10.1-9.7,11.9-11.8c1.2-1.4,1.2-1.4,0.7-0.3c-0.3,0.7-2.8,3.3-5.2,5.8c-2.6,2.6-5.7,5.5-6.9,6.3
						l-2.3,1.8L290.7-108.1z M266.5-117c0.1-0.8,0.3-1.6,0.6-2c0.2-0.4,0.2-0.3,0.1,0.6c-0.1,0.7-0.4,1.6-0.6,1.9
						C266.4-116,266.4-116.2,266.5-117z M254.5-89.2c-0.1,0.3-0.1,0-0.1-0.7c0-0.7,0-0.9,0.1-0.6C254.6-90,254.6-89.5,254.5-89.2z
						 M254.9-95.1c-0.4,0-0.4,0.1,0.7-6.5c1.2-6.3,2.7-12.5,4.3-17.5c1-3.3,3.2-8.5,3.5-8.2c0,0.1-0.6,1.8-1.3,3.7
						c-2.6,6.7-4.8,15-6,23.3C255.5-97.4,255-95.1,254.9-95.1z M255.7-87.7c0-1.7,0.1-2.8,0.3-2.8c0.2,0,0.3,0.8,0.3,1.9
						C256.3-85.4,255.7-84.7,255.7-87.7z M256.4-96.5c0-1.4,1.7-10.1,2.7-14.2c1.9-7.6,5-16.7,5.3-15.7c0.1,0.2-0.1,1.2-0.6,2.2
						c-2.1,5.5-5,16.4-6.2,24C257-96.5,256.4-94.6,256.4-96.5z M261.1-110.2c0-0.3,0.1-0.4,0.2-0.2c0.1,0.3,0,0.6-0.1,0.7
						C261.1-109.5,261.1-109.8,261.1-110.2z M261.3-87.7c-0.1,0.3-0.2,0-0.2-0.7s0.1-1,0.2-0.7C261.3-88.6,261.3-88,261.3-87.7z
						 M262.4-98.5c-0.6,0.6,1.8-10.4,3.1-15c1.2-3.8,0.9-1.9-0.6,4c-0.8,3-1.6,6.6-1.9,8C262.8-100,262.5-98.7,262.4-98.5z
						 M267.7-91.4c0.1-0.1,0.6,0.3,1,0.9c0.4,0.6,0.7,1,0.7,1C269.1-89.5,267.6-91.2,267.7-91.4z M279.7-76c-0.4,0-5.6-4.1-8.4-6.8
						c-2.9-2.9-6-6.7-6-7.5c0-0.2,0.6,0.4,1.3,1.5c3.2,4.2,8.6,9.6,12.5,12.2C279.5-76.3,279.9-76,279.7-76z M282.8-75.4
						c-3.5-2.2-7.4-5.2-11.3-8.9c-3-2.9-5.8-6.3-5.5-6.8c0.1-0.1,0.6,0.2,0.9,0.7c3,4.3,10.1,10.9,16.5,15c1.2,0.8,2.3,1.6,2.5,1.7
						C286.9-73,285.6-73.7,282.8-75.4z"/>
				</g>
			</g>
		</g>
		<g>
			<g transform="translate(143.635308, 149.749717)">
				<g>
					<path class="st0" d="M269.3-85c-0.3,0.1-0.6,0.1-0.4,0c0-0.2-0.1-0.3-0.3-0.4c-0.2-0.1-1.2,1.6-2.2,3.6
						c-1.7,3.1-2.2,3.9-3.7,4.8c-2.1,1.4-5.3,2.2-6.1,1.6c-1.1-1-2.2-7.4-1.8-10.6l0.2-1.7h1.6c2.1-0.1,4.1-1.4,6.5-4.6
						c4.2-5.6,6.5-12.3,5.5-16c-0.6-2-1.8-3.8-3.3-4.6c-0.7-0.3-1.7-1.1-2.4-1.8c-3.3-2.9-7.6-2.1-11.7,2.2
						c-4.8,5.1-7.7,13.6-7.7,21.9c0,6.5,1.3,10.2,4.9,14.6c1.1,1.3,2.8,2.8,3.7,3.2c0.8,0.6,2.2,1.5,3,2.1c0.9,0.7,1.9,1.3,2.5,1.4
						c2.8,0.8,5,0.1,7.6-2.3c1.1-1.1,2.2-2.3,2.3-2.9c0.6-1.6,2.6-8.4,2.7-8.9C269.9-84.7,269.7-85.2,269.3-85z M262.5-95.4
						c-0.4,0.6-0.9,1.3-1.2,1.6c-0.2,0.2,0-0.3,0.6-1.1C262.9-96.7,263.4-96.9,262.5-95.4z M264.1-98.3c-1,2-1.3,1.9-0.3-0.1
						c0.4-0.9,0.8-1.6,0.9-1.4S264.5-99.1,264.1-98.3z M265.6-102.5c0.2-0.3,0.2-0.2,0,0.3c-0.1,0.6-0.3,1.2-0.6,1.4
						c-0.2,0.4-0.2,0.3,0-0.3C265.2-101.5,265.4-102.2,265.6-102.5z M263.5-99.6c0.3-0.9,0.9-2.2,1.1-3c0.6-1.4,0.6-1.4,0.3-0.2
						c-0.1,0.7-0.6,2.1-1,3.1c-0.4,1-0.9,1.9-1,1.9C262.8-97.8,263-98.6,263.5-99.6z M261.9-107.3c0.8-0.6,0.8-0.6,0.8,0.3
						c0,3-2.7,9.7-4.8,11.9c-1.1,1.2-2.3,2.2-2.3,2c0-0.1,0.4-1.6,0.9-3.1C257.6-99.5,260.9-106.3,261.9-107.3z M248.8-91.4
						c-0.1,0.2-0.2,0-0.2-0.4c0-0.6,0.1-0.8,0.2-0.4C248.9-92,248.9-91.7,248.8-91.4z M248.4-98.3c-0.4,0,0-1.1,1.3-4
						c1.4-2.9,1.4-2.8,0,1.1C249.1-99.5,248.6-98.3,248.4-98.3z M249.8-98.2c-0.4-0.7,2.8-8,4-9c0.2-0.2,0,0.4-0.6,1.6
						c-0.4,1-1.4,3.2-2.1,4.9C250.6-99.2,249.9-97.9,249.8-98.2z M251.6-97.8c0.6-3,3.9-9.8,5.2-11c0.3-0.2-0.1,0.7-0.9,2
						c-0.8,1.3-2.1,4.2-3,6.3C252-98.4,251.5-97.2,251.6-97.8z M253.9-93.4c-0.1-0.7,1.3-5.3,1.6-5.1c0,0-0.3,1.3-0.8,2.9
						C254.2-94.1,253.9-93,253.9-93.4z M267.2-78.5c-0.1,0.1-0.2,0-0.2-0.2c0-0.3-0.2-0.3-0.3-0.2c-0.2,0.1-0.3-0.1-0.1-0.4
						c0.2-0.6,0.2-0.6,0.6,0C267.2-79,267.3-78.6,267.2-78.5z"/>
				</g>
			</g>
		</g>
		<g>
			<g transform="translate(165.859243, 149.749717)">
				<g>
					<path class="st0" d="M280.6-110.4c-0.6-1.7-1.9-3.2-3.3-4c-1.1-0.6-1.1-0.4-1.8,0.2c-0.3,0.4-0.6,1.3-0.6,2.4
						c0,2.3-1,9.8-1.8,14.2c-1.3,6.7-4.1,15.2-6.8,20.4c-1,1.9-1,1.9-1.7-1.6c-1-5-1.1-9.9-0.8-19.4c0.2-5.1,0.3-9.9,0.2-10.7
						c-0.3-1.8-0.9-3.2-1.2-3.1c-0.2,0.1-0.6-0.1-0.9-0.4c-0.3-0.3-0.9-0.7-1.2-0.6c-0.3,0-0.9-0.1-1.2-0.4
						c-0.6-0.4-0.7-0.4-0.9,0.3c-0.3,0.8-0.3,0.8-0.4-0.3c0-0.7-0.1-1.1-0.3-1c-0.2,0.1-0.4,0-0.6-0.4c-0.3-0.9-0.8-1.1-1.9-0.9
						c-1.3,0.2-2,1.1-2.8,3.5c-1.1,3.1-1.4,6.3-1.7,13.5c-0.3,7.3,0.1,12,1.4,17.3c1.6,6.1,3.3,9.4,6.6,11.9
						c1.3,1.1,2.1,1.4,3.1,1.4c0.8,0,1.4,0.1,1.7,0.3c0.1,0.2,0.8,0.7,1.4,1.1c1.7,0.9,3.1,0.6,4.6-0.9c3-2.8,8.2-16.8,10.6-27.8
						C281.1-99.3,281.3-108.4,280.6-110.4z M255.3-95.8c-0.1,0.9-0.1,0.2-0.2-1.4c-0.1-4.8,1.3-15.7,2-15c0,0.1-0.1,1.4-0.4,3
						c-0.2,1.4-0.7,4.8-0.9,7.4C255.5-99.5,255.3-96.7,255.3-95.8z M257.5-103.7c-0.2,2.1-0.4,7-0.4,10.8c-0.1,3.9-0.1,7-0.1,7
						c-0.1,0-0.2-1.6-0.3-3.5c-0.4-5.8,0.4-20.2,1.3-22.2C258.3-112.3,258.2-110.2,257.5-103.7z M276.9-105.1c0.1,0.2,0.1,0.6,0,0.9
						c-0.1,0.2-0.2,0-0.2-0.4C276.7-105.2,276.8-105.3,276.9-105.1z M276.6-102.6c0,0.2,0,0.6-0.1,0.7c-0.1,0.1-0.2-0.1-0.1-0.4
						C276.3-102.8,276.5-102.8,276.6-102.6z M276.1-96.4c0.4-2.3,1-5.7,1.1-7.6c0.1-1.9,0.3-3.7,0.6-4c0.4-1.2-0.1,4.9-0.8,9.1
						c-0.7,3.7-1.7,7.9-1.8,7.1C275.2-91.9,275.6-94.1,276.1-96.4z M275.1-90.9c0.1,0.2,0.1,0.6,0,0.7c-0.1,0.1-0.2-0.1-0.2-0.4
						C274.9-91.2,275-91.2,275.1-90.9z M272.3-79.6c-0.1,0.3-0.3,0.4-0.3,0.2c0-0.2,0.2-0.6,0.3-0.9c0.2-0.3,0.4-0.3,0.4-0.2
						C272.8-80.2,272.6-79.8,272.3-79.6z M273.1-81.3c-0.2,0.3-0.3,0.4-0.3,0.2c0-0.2,0.1-0.6,0.3-0.9c0.1-0.3,0.3-0.3,0.3-0.2
						C273.5-82,273.2-81.6,273.1-81.3z M275.2-87.1c-0.7,1.9-1.2,3.3-1.2,3.3c-0.2,0-0.3,0.3,1-3.9c0.7-2,1.2-3.5,1.2-3.2
						S275.8-89,275.2-87.1z M277.1-94.2c-0.3,1.4-0.7,2.6-0.8,2.6c-0.1,0-0.1-0.6,0.8-4.8c0.3-1.6,0.8-4.3,1.1-6.1
						c0.2-1.9,0.4-2.9,0.4-2.3C278.8-103.5,277.9-97.5,277.1-94.2z"/>
				</g>
			</g>
		</g>
		<g>
			<g transform="translate(191.007399, 149.749717)">
				<g>
					<path class="st0" d="M285.1-85c-0.3,0.1-0.6,0.1-0.4,0c0-0.2-0.1-0.3-0.3-0.4c-0.2-0.1-1.2,1.6-2.2,3.6
						c-1.7,3.1-2.2,3.9-3.7,4.8c-2.1,1.4-5.3,2.2-6.1,1.6c-1.1-1-2.2-7.4-1.8-10.6l0.2-1.7h1.6c2.1-0.1,4.1-1.4,6.5-4.6
						c4.2-5.6,6.5-12.3,5.5-16c-0.6-2-1.8-3.8-3.3-4.6c-0.7-0.3-1.7-1.1-2.4-1.8c-3.3-2.9-7.6-2.1-11.7,2.2
						c-4.8,5.1-7.7,13.6-7.7,21.9c0,6.5,1.3,10.2,4.9,14.6c1.1,1.3,2.8,2.8,3.7,3.2c0.8,0.6,2.2,1.5,3,2.1c0.9,0.7,1.9,1.3,2.5,1.4
						c2.8,0.8,5,0.1,7.6-2.3c1.1-1.1,2.2-2.3,2.3-2.9c0.6-1.6,2.6-8.4,2.7-8.9C285.7-84.7,285.5-85.2,285.1-85z M278.3-95.4
						c-0.4,0.6-0.9,1.3-1.2,1.6c-0.2,0.2,0-0.3,0.6-1.1C278.7-96.7,279.2-96.9,278.3-95.4z M279.9-98.3c-1,2-1.3,1.9-0.3-0.1
						c0.4-0.9,0.8-1.6,0.9-1.4S280.3-99.1,279.9-98.3z M281.4-102.5c0.2-0.3,0.2-0.2,0,0.3c-0.1,0.6-0.3,1.2-0.6,1.4
						c-0.2,0.4-0.2,0.3,0-0.3C280.9-101.5,281.2-102.2,281.4-102.5z M279.3-99.6c0.3-0.9,0.9-2.2,1.1-3c0.6-1.4,0.6-1.4,0.3-0.2
						c-0.1,0.7-0.6,2.1-1,3.1c-0.4,1-0.9,1.9-1,1.9C278.6-97.8,278.8-98.6,279.3-99.6z M277.7-107.3c0.8-0.6,0.8-0.6,0.8,0.3
						c0,3-2.7,9.7-4.8,11.9c-1.1,1.2-2.3,2.2-2.3,2c0-0.1,0.4-1.6,0.9-3.1C273.4-99.5,276.7-106.3,277.7-107.3z M264.6-91.4
						c-0.1,0.2-0.2,0-0.2-0.4c0-0.6,0.1-0.8,0.2-0.4C264.7-92,264.7-91.7,264.6-91.4z M264.2-98.3c-0.4,0,0-1.1,1.3-4
						c1.4-2.9,1.4-2.8,0,1.1C264.9-99.5,264.3-98.3,264.2-98.3z M265.6-98.2c-0.4-0.7,2.8-8,4-9c0.2-0.2,0,0.4-0.6,1.6
						c-0.4,1-1.4,3.2-2.1,4.9C266.4-99.2,265.7-97.9,265.6-98.2z M267.4-97.8c0.6-3,3.9-9.8,5.2-11c0.3-0.2-0.1,0.7-0.9,2
						c-0.8,1.3-2.1,4.2-3,6.3C267.8-98.4,267.2-97.2,267.4-97.8z M269.7-93.4c-0.1-0.7,1.3-5.3,1.6-5.1c0,0-0.3,1.3-0.8,2.9
						C270-94.1,269.7-93,269.7-93.4z M283-78.5c-0.1,0.1-0.2,0-0.2-0.2c0-0.3-0.2-0.3-0.3-0.2c-0.2,0.1-0.3-0.1-0.1-0.4
						c0.2-0.6,0.2-0.6,0.6,0C283-79,283.1-78.6,283-78.5z"/>
				</g>
			</g>
		</g>
		<g>
			<g transform="translate(213.231333, 149.749717)">
				<g>
					<path class="st0" d="M300.4-115.6c-2.6-1.6-3-1.7-5-1.7c-4.5,0-7.7,2.8-11.9,10.4c-1.1,2.1-1.7,2.7-1.6,2c0.7-3.3,1-8,0.8-9.2
						c-0.2-1.2-0.2-1.3-0.8-0.7c-0.4,0.7-0.4,0.7-0.4-0.3c0-1-1.2-1.8-2-1.1c-0.3,0.2-0.4,0.1-0.4-0.3c0-0.4-0.2-0.4-0.8-0.3
						c-0.4,0.1-0.7,0.1-0.7-0.3c0-0.3-0.4-1-1-1.4c-2.4-2.3-5.8,1.6-7.5,8.8c-0.3,1.6-1.1,5.6-1.7,8.9c-0.9,5.1-1,7.1-1,13.5
						c0,8,0.2,9.8,2.5,14.5c1.2,2.4,3.3,4.1,4.8,3.7c0.9-0.2,1.2-0.1,2.5,1.1c1.6,1.6,2.4,1.8,2.6,0.8c0-0.6,0-0.6,0.2,0.1
						c0.3,0.6,0.3,0.6,0.9-0.2c0.4-0.7,0.6-1.3,0.3-3.6c-0.4-6.7,2.2-18.2,6.3-26.8c3.8-8.1,8.5-12.6,13.9-13.5
						c1.2-0.1,2.3-0.1,2.8,0c0.9,0.3,2,0.2,2-0.3C305.2-112.2,303.1-113.9,300.4-115.6z M270.7-86c-0.1,0.6-0.2,0.1-0.2-0.9
						c0-1.1,0.1-1.6,0.2-1C270.7-87.4,270.7-86.6,270.7-86z M270.9-92.6c-0.1-4.5,2.8-18.9,4.2-20.9c0.2-0.4,0.3-0.3,0.1,0.2
						c-1.8,6.3-1.8,6.6-2.8,12.1c-0.3,1.7-0.8,4.7-1.1,6.8C271-91.5,270.9-91,270.9-92.6z M273.3-96.7c-0.2,1.6-0.6,5.7-0.7,9.2
						c-0.2,5.2-0.3,6-0.6,4.6c-1-5.3,1.9-25.6,4.5-31.3c1-2.3,1-1.6,0,1.8C275.7-109.1,273.9-101.1,273.3-96.7z M275.7-101.1
						c-0.1,0.2-0.2,0.1-0.2-0.4c0-0.4,0.1-0.7,0.2-0.4C275.8-101.7,275.8-101.3,275.7-101.1z M277.3-108.4c-1.8,6.7-1.8,5.8-0.1-1.3
						c1.1-4.6,1.2-5.1,1.6-4.8C278.8-114.4,278.2-111.7,277.3-108.4z M278.2-96.8c0-0.8,2.9-15,3.1-15.3c0.2-0.2-0.2,2.2-1.6,9.3
						C278.7-97.2,278.2-95.7,278.2-96.8z M280.7-93.4c-0.4,1.1-0.7,1.3-0.7,0.9c0-0.2,0.2-0.7,0.6-1
						C281.1-94.2,281.1-94.2,280.7-93.4z M284.2-99.3c-1.1,2.5-2.8,6.3-3.6,8.7c-0.8,2.2-1.3,3.6-1.2,2.8c0.4-2.7,5.5-14.4,6.6-15.6
						C286.2-103.6,285.5-101.7,284.2-99.3z"/>
				</g>
			</g>
		</g>
		<g>
			<g transform="translate(242.891117, 149.749717)">
				<g>
					<path class="st0" d="M295.3-131.3c-0.2,0-0.8-0.3-1.1-0.8c-1.8-2-4.2-2.2-6.6-0.7c-3.1,2.1-6,6.7-5.1,8.2
						c0.7,1.3,1.4,1.9,2.2,1.7c0.4-0.1,0.8-0.1,0.8,0.1c0,0.2,0.2,0.3,0.6,0.2c0.4-0.2,0.6,0,0.6,0.7c0,0.6,0.2,1,0.6,1.1
						c1.2,0.4,2.3-0.4,4.7-3.7c0.9-1.3,2.2-2.7,3.2-3.3c0.9-0.4,1.7-1.2,1.7-1.6C296.8-130,295.9-131.3,295.3-131.3z M291.2-72.6
						c-1.2-0.8-2-3.5-2.2-7c-0.2-3.3,0.3-13.6,1.1-19.4c1-7.3,1.3-12.6,0.9-13.7c-0.2-0.6-0.6-1-0.7-0.9c-0.2,0.1-0.6,0-0.8-0.3
						c-0.2-0.3-0.7-0.4-0.9-0.3c-0.3,0-0.6-0.1-0.6-0.3s-0.2,0-0.6,0.4l-0.4,1l0.1-1c0-0.6-0.1-0.9-0.6-0.9c-0.3,0-1-0.4-1.4-1.1
						c-1.7-2-4.2-1-5.7,2c-2.2,4.6-3.2,11.9-3,21.8c0.1,5.8,0.3,7.6,1,9.8c1.7,6,4.2,9.6,7.9,10.7c1,0.3,2.1,0.8,2.6,1.1
						c1.2,1,4,0.4,4-0.8C292-71.7,291.7-72.2,291.2-72.6z M281.1-92.8c-0.2,5.3-0.2,5.9-0.4,4c-0.6-3.5,0.3-12.9,1.6-18.6
						c0.8-3.6,1.2-4.3,0.7-1c-0.2,1.1-0.7,3.7-1,5.7C281.5-100.6,281.2-96.2,281.1-92.8z M282.5-90.5c-0.2,6.1-0.2,6.6-0.6,4.1
						c-0.6-5.8,1.1-22.5,2.7-25.5c0.6-1.2,0.7-0.7,0.1,1.8c-0.3,1.2-0.9,4.6-1.2,7.5C283.1-99.7,282.6-94.3,282.5-90.5z M284.1-93
						c-0.1,0.2-0.1,0-0.1-0.6c0-0.4,0-0.7,0.1-0.4C284.2-93.7,284.2-93.4,284.1-93z M286.9-111.7c-0.1,0.6-0.4,2.7-0.9,4.8
						c-0.3,2.1-0.9,5.5-1.2,7.6c-0.6,4.3-0.7,3.3-0.1-1.6c0.4-4.7,1.8-11.7,2.2-11.7C287-112.5,287.1-112.1,286.9-111.7z M287.8-92
						c-0.2,2.6-0.4,6-0.4,7.8c-0.1,2.7-0.1,2.5-0.1-1.1c-0.1-2.3,0-5.9,0.2-7.8c0.6-5.7,2.2-18.6,2.4-17.6c0,0.4-0.3,3.8-0.8,7.4
						C288.5-99.7,288-94.6,287.8-92z"/>
				</g>
			</g>
		</g>
		<g>
			<g transform="translate(260.603434, 149.749717)">
				<g>
					<path class="st0" d="M308.3-85c-0.3,0.1-0.6,0.1-0.4,0c0-0.2-0.1-0.3-0.3-0.4c-0.2-0.1-1.2,1.6-2.2,3.6
						c-1.7,3.1-2.2,3.9-3.7,4.8c-2.1,1.4-5.3,2.2-6.1,1.6c-1.1-1-2.2-7.4-1.8-10.6l0.2-1.7h1.6c2.1-0.1,4.1-1.4,6.5-4.6
						c4.2-5.6,6.5-12.3,5.5-16c-0.6-2-1.8-3.8-3.3-4.6c-0.7-0.3-1.7-1.1-2.4-1.8c-3.3-2.9-7.6-2.1-11.7,2.2
						c-4.8,5.1-7.7,13.6-7.7,21.9c0,6.5,1.3,10.2,4.9,14.6c1.1,1.3,2.8,2.8,3.7,3.2c0.8,0.6,2.2,1.5,3,2.1c0.9,0.7,1.9,1.3,2.5,1.4
						c2.8,0.8,5,0.1,7.6-2.3c1.1-1.1,2.2-2.3,2.3-2.9c0.6-1.6,2.6-8.4,2.7-8.9C308.9-84.7,308.7-85.2,308.3-85z M301.5-95.4
						c-0.4,0.6-0.9,1.3-1.2,1.6c-0.2,0.2,0-0.3,0.6-1.1C301.9-96.7,302.4-96.9,301.5-95.4z M303.1-98.3c-1,2-1.3,1.9-0.3-0.1
						c0.4-0.9,0.8-1.6,0.9-1.4S303.5-99.1,303.1-98.3z M304.6-102.5c0.2-0.3,0.2-0.2,0,0.3c-0.1,0.6-0.3,1.2-0.6,1.4
						c-0.2,0.4-0.2,0.3,0-0.3C304.1-101.5,304.4-102.2,304.6-102.5z M302.5-99.6c0.3-0.9,0.9-2.2,1.1-3c0.6-1.4,0.6-1.4,0.3-0.2
						c-0.1,0.7-0.6,2.1-1,3.1c-0.4,1-0.9,1.9-1,1.9C301.8-97.8,302-98.6,302.5-99.6z M300.9-107.3c0.8-0.6,0.8-0.6,0.8,0.3
						c0,3-2.7,9.7-4.8,11.9c-1.1,1.2-2.3,2.2-2.3,2c0-0.1,0.4-1.6,0.9-3.1C296.6-99.5,299.9-106.3,300.9-107.3z M287.8-91.4
						c-0.1,0.2-0.2,0-0.2-0.4c0-0.6,0.1-0.8,0.2-0.4C287.9-92,287.9-91.7,287.8-91.4z M287.4-98.3c-0.4,0,0-1.1,1.3-4
						c1.4-2.9,1.4-2.8,0,1.1C288.1-99.5,287.5-98.3,287.4-98.3z M288.8-98.2c-0.4-0.7,2.8-8,4-9c0.2-0.2,0,0.4-0.6,1.6
						c-0.4,1-1.4,3.2-2.1,4.9C289.6-99.2,288.9-97.9,288.8-98.2z M290.6-97.8c0.6-3,3.9-9.8,5.2-11c0.3-0.2-0.1,0.7-0.9,2
						c-0.8,1.3-2.1,4.2-3,6.3C291-98.4,290.4-97.2,290.6-97.8z M292.9-93.4c-0.1-0.7,1.3-5.3,1.6-5.1c0,0-0.3,1.3-0.8,2.9
						C293.2-94.1,292.9-93,292.9-93.4z M306.1-78.5c-0.1,0.1-0.2,0-0.2-0.2c0-0.3-0.2-0.3-0.3-0.2c-0.2,0.1-0.3-0.1-0.1-0.4
						c0.2-0.6,0.2-0.6,0.6,0C306.1-79,306.3-78.6,306.1-78.5z"/>
				</g>
			</g>
		</g>
		<g>
			<g transform="translate(282.827378, 149.749717)">
				<g>
					<path class="st0" d="M312-81.3c-0.6-1.7-3.5-4.9-6-6.7c-7.5-5.2-8.6-6.6-7.8-10.1c0.9-4.6,4.7-9.5,7.8-10.4
						c1.3-0.3,1.6-0.3,2.9,0.6c1.6,1,2.3,1,2.8,0c0.4-1.1-0.3-2.2-2.1-3.6c-0.9-0.7-2-1.6-2.5-2c-2.9-2.7-6.3-3.1-9.9-1.3
						c-6.7,3.3-11,12.3-8.6,17.5c1.4,3,4.3,6.2,7.5,8.4c3.1,2.1,5.6,4.3,5.8,5.1c0.4,1.4-0.4,4.3-1.9,6.3c-2.8,3.8-6.9,4.8-9.9,2.3
						c-1.4-1.2-2.3-1.2-2.9-0.3c-0.7,1,0.3,2.3,3.2,4.6c3.5,2.6,4.6,3.2,6,3.8c1.9,0.7,5.8,0.4,8-0.6c2.2-1.1,5.8-4.7,6.9-6.9
						C312.3-76.8,312.6-79.6,312-81.3z M291.6-101.4c-0.3,0-0.1-1,0.6-2.3c0.4-0.8,0.7-1.1,0.6-0.7c-0.1,0.3-0.4,1.2-0.6,1.8
						C291.9-102,291.7-101.4,291.6-101.4z M292.6-100.4c-0.3,0,0.2-2.6,1-4.1c1-2,1.7-2.5,0.9-0.6c-0.3,0.8-0.9,2.1-1.1,3
						C293.1-101.2,292.7-100.4,292.6-100.4z M294.7-101.7c-0.2,0.6-0.3,0.7-0.4,0.2c0-0.8,1.6-4.1,2.5-5.2c0.6-0.7,0.4-0.2-0.4,1.6
						C295.7-103.7,295-102.3,294.7-101.7z M296.8-99.6c0-0.3,0.1-0.8,0.3-1.1c0.1-0.3,0.3-0.3,0.2-0.2
						C297.4-100.3,296.8-99.1,296.8-99.6z M304.6-78.5c0.4-1.6,0.7-1.7,0.7-0.8c0,0.3-0.2,1-0.6,1.3
						C304.3-77.2,304.3-77.3,304.6-78.5z M305.1-76.6c0.1-0.3,0.6-1.3,0.8-2.2c0.4-1.2,0.7-1.4,0.8-0.8c0,0.4-0.2,1.3-0.7,2.2
						C305.3-76,304.6-75.3,305.1-76.6z M307.5-77.3c-0.2,0.8-1.6,2.8-1.6,2.3c0-0.1,0.4-0.9,0.9-1.7
						C307.4-77.7,307.7-77.9,307.5-77.3z"/>
				</g>
			</g>
		</g>
	</g>
</g>
</svg>
